<?xml version="1.0" encoding="utf-8"?>
<!-- Generator: Adobe Illustrator 27.5.0, SVG Export Plug-In . SVG Version: 6.00 Build 0)  -->
<svg version="1.1" id="Layer_1" xmlns="http://www.w3.org/2000/svg" xmlns:xlink="http://www.w3.org/1999/xlink" x="0px" y="0px"
	 viewBox="0 0 4000 4000" style="enable-background:new 0 0 4000 4000;" xml:space="preserve">
<g>
	<g>
		<rect x="3.08" y="3.08" style="" width="3993.839" height="3993.839"/>
	</g>
	<g>
		<g>
			<g>
				<path style="fill:#FFFFFF;" d="M2688.708,2697.224c-104.104,161.691-405.923,129.887-405.923,129.887l-73.038-1036.896
					l-14.757-209.424c0,0,170.43-7.558,303.42,38.062c64.084,21.939,119.44,56.261,142.9,109.685
					C2722.976,1914.151,2774.242,2564.336,2688.708,2697.224z"/>
			</g>
			<g style="opacity:0.25;">
				<path style="fill:#371A45;" d="M2722.16,2157.537c19.45,227.124,14.571,465.031-33.451,539.66
					c-104.09,161.7-405.949,129.908-405.949,129.908l-87.737-1246.279c0,0,3.171-0.158,9.007-0.243l68.392,971.72
					c0,0,301.859,31.792,405.949-129.907C2706.555,2378.575,2719.885,2278.568,2722.16,2157.537z"/>
			</g>
			<g>
				<path style="fill:#371A45;" d="M2345.46,2846.154c-36.282,0-60.936-2.445-64.395-2.808c-8.958-0.943-15.455-8.97-14.516-17.929
					c0.941-8.961,9.019-15.474,17.926-14.526c2.918,0.302,293.112,28.776,390.509-122.511
					c79.733-123.854,34.698-763.88-48.604-953.256c-67.004-152.328-427.007-138.212-430.644-138.039
					c-8.968,0.368-16.625-6.577-17.022-15.579c-0.397-9.002,6.577-16.622,15.579-17.022
					c15.725-0.697,386.057-15.057,461.958,157.501c80.004,181.88,137.49,842.209,46.171,984.058
					C2623.552,2828.554,2442.759,2846.151,2345.46,2846.154z"/>
			</g>
			<g>
				<path style="fill:#FFFFFF;" d="M2706.77,2254.727l-202.176,30.267c-18.049,2.702-32.067,17.546-34.056,36.182
					c-7.285,68.244-16.15,226.759,51.15,274.066c55.859,39.265,141.464,28.044,188.851-19.383
					c53.008-53.051,48.046-207.54,41.953-283.759C2750.598,2268.404,2729.66,2251.3,2706.77,2254.727z"/>
			</g>
			<g style="opacity:0.35;">
				<path style="fill:#371A45;" d="M2470.553,2321.199c-7.32,68.221-16.156,226.744,51.15,274.028
					c55.869,39.284,141.452,28.059,188.866-19.382c32.574-32.649,43.247-103.654,45.21-171.194
					c-6.88,34.168-19.406,62.413-36.072,81.551c-95.49,109.65-180.151-5.478-180.151-5.478s-11.283,30.24-21.747,32.658
					c-43.755,10.109-44.274-132.854-42.873-206.835C2472.632,2310.971,2471.098,2315.906,2470.553,2321.199z"/>
			</g>
			<g>
				<path style="fill:#371A45;" d="M2601.778,2635.483c-32.074,0-63.708-8.78-89.474-26.892
					c-71.913-50.552-67.201-202.858-57.992-289.146c2.774-25.98,22.458-46.783,47.866-50.586l202.176-30.268
					c15.377-2.286,30.605,1.789,42.856,11.52c12.415,9.86,20.267,24.691,21.546,40.692c6.906,86.407,10.026,239.843-46.676,296.591
					C2690.521,2618.977,2645.739,2635.48,2601.778,2635.483z M2712.613,2270.606c-1.136,0-2.281,0.085-3.427,0.256v0.002
					l-202.176,30.268c-10.726,1.604-19.05,10.557-20.25,21.773c-14.163,132.71,2.401,229.529,44.309,258.988
					c47.883,33.659,124.783,25.615,167.927-17.566c34.651-34.68,48.221-133.429,37.233-270.927
					c-0.568-7.12-3.876-13.419-9.312-17.736C2722.744,2272.352,2717.764,2270.606,2712.613,2270.606z M2706.77,2254.727h0.049
					H2706.77z"/>
			</g>
			<g>
				<path style="fill:#371A45;" d="M2547.396,2356.357c10.47,70.201,6.792,151.647,56.187,206.932
					c15.222,16.137,35.25,25.93,57.174,29.813c8.904,1.54,14.867,10.033,13.289,18.931c-1.572,8.877-10.043,14.799-18.92,13.227
					c-91.523-19.635-115.45-110.634-120.272-191.642c-1.956-25.411-2.176-50.848-4.6-75.123
					C2529.319,2347.53,2545.561,2345.364,2547.396,2356.357L2547.396,2356.357z"/>
			</g>
			<g style="opacity:0.25;">
				<path style="fill:#371A45;" d="M2462.132,1621.457c-84.373,75.994-182.677,134.198-288.663,171.362l-14.757-209.424
					C2158.712,1583.395,2329.142,1575.837,2462.132,1621.457z"/>
			</g>
		</g>
		<g>
			<g>
				<path style="fill:#FFFFFF;" d="M1274.328,2211.748c22.706-258.496,311.73-496.241,453.912-554.512l123.535,11.654
					l-223.761,615.341L1274.328,2211.748z"/>
			</g>
			<g>
				<path style="fill:#371A45;" d="M1628.024,2300.55c-1.087,0-2.187-0.11-3.286-0.334l-353.685-72.483
					c-8.12-1.665-13.702-9.154-12.978-17.412c22.933-261.101,309.82-505.002,463.979-568.181c2.44-0.999,5.09-1.385,7.72-1.148
					l123.533,11.654c5.029,0.475,9.556,3.252,12.256,7.523c2.701,4.271,3.271,9.551,1.543,14.297l-223.759,615.342
					C1640.968,2296.357,1634.762,2300.55,1628.024,2300.55z M1292.136,2198.744l325.358,66.677l211.734-582.271l-98.461-9.287
					c-65.131,27.701-170.279,98.486-262.383,196.706C1396.609,1947.109,1309.129,2065.127,1292.136,2198.744z"/>
			</g>
			<g>
				<path style="fill:#FFFFFF;" d="M1552.678,2697.631c0,0-41.005,427.391,27.654,676.565c0,0-184.184,105.761-67.115,187.33
					c127.855,89.084,461.67,86.386,521.322-28.549c61.01-117.552-31.163-665.645-21.714-1053.843"/>
			</g>
			<g>
				<path style="fill:#371A45;" d="M1749.519,3172.503c-69.79,0-144.474-9.322-214.574-36.267
					c-8.41-3.235-12.607-12.673-9.375-21.086c3.235-8.41,12.673-12.605,21.086-9.375c211.558,81.33,477.701-9.985,480.365-10.921
					c8.505-2.976,17.812,1.506,20.788,10.014c2.976,8.505-1.506,17.812-10.014,20.788
					C2030.028,3128.375,1901.367,3172.503,1749.519,3172.503z"/>
			</g>
			<g>
				<path style="fill:#371A45;" d="M1857.496,3403.147c-73.851-35.684-160.556-43.474-239.695-23.285
					c-10.256,2.27-23.82,7.326-33.991,10.347c-20.684,6.03-30.355-24.113-9.923-31.189
					C1669.146,3335.956,1774.479,3350.52,1857.496,3403.147L1857.496,3403.147z"/>
			</g>
			<g style="opacity:0.25;">
				<path style="fill:#371A45;" d="M1475.66,3517.809c4.712,14.849,15.996,29.641,36.208,43.738
					c127.842,89.035,461.647,86.378,521.29-28.542c61.007-117.578-31.186-665.659-21.7-1053.869l-460.16,218.516
					c0,0-4.153,43.565-7.626,110.991c38.068,37.498,112.281,88.111,255.561,133.872c193.996,61.938,222.082,589.104-7.873,614.525
					C1711.133,3565.881,1565.372,3552.476,1475.66,3517.809z"/>
			</g>
			<g>
				<path style="fill:#371A45;" d="M1773.959,3640.858c-104.487,0-209.62-23.828-270.067-65.943
					c-31.731-22.11-47.161-48.402-45.862-78.151c2.623-60.068,74.531-111.763,103.4-130.153
					c-64.273-250.31-26.651-653.243-24.993-670.538c0.863-8.971,8.839-15.504,17.8-14.685c8.971,0.861,15.542,8.829,14.684,17.8
					c-0.407,4.244-39.921,427.3,27.141,670.674l3.354,12.174l-10.952,6.304c-26.553,15.291-95.895,64.836-97.833,109.874
					c-0.78,18.09,9.66,34.42,31.914,49.926c80.335,55.976,256.036,76.676,383.673,45.196c58.133-14.333,98.564-38.439,113.84-67.874
					c32.93-63.449,16.927-279.598-0.015-508.442c-12.922-174.541-27.567-372.37-23.528-538.283
					c0.217-9.01,7.549-16.276,16.708-15.913c9.007,0.219,16.132,7.698,15.913,16.708c-3.998,164.309,10.584,361.288,23.45,535.08
					c18.787,253.773,33.627,454.221-3.564,525.881c-19.952,38.442-66.633,67.671-134.994,84.528
					C1870.47,3635.761,1822.28,3640.858,1773.959,3640.858z"/>
			</g>
			<g>
				<path style="fill:#FFFFFF;" d="M2495.013,2346.865l-156.248,11.126c-13.949,0.993-25.432,10.607-27.904,23.439
					c-9.053,46.99-23.918,156.532,25.168,192.639c40.742,29.969,106.819,26.364,145.497-4.225
					c43.266-34.217,47.346-141.641,46.569-194.817C2527.853,2358.495,2512.703,2345.606,2495.013,2346.865z"/>
			</g>
			<g style="opacity:0.35;">
				<path style="fill:#371A45;" d="M2310.871,2381.448c-9.079,46.973-23.922,156.521,25.17,192.612
					c40.749,29.983,106.809,26.374,145.509-4.224c26.59-21.06,38.376-69.801,43.323-116.563
					c-7.007,23.369-18.031,42.353-31.76,54.817c-78.659,71.41-137.573-12.598-137.573-12.598s-10.175,20.429-18.306,21.595
					c-33.997,4.877-27.106-94.333-22.262-145.591C2312.983,2374.453,2311.558,2377.802,2310.871,2381.448z"/>
			</g>
			<g>
				<path style="fill:#371A45;" d="M2404.724,2614.178c-29.162,0-58.011-8.086-80.228-24.43
					c-56.083-41.252-44.592-150.532-32.747-212c4.129-21.442,22.895-37.55,45.63-39.171l156.251-11.125
					c14.143-1.024,28.208,3.81,38.471,13.229c9.775,8.97,15.264,21.069,15.455,34.061c1.104,75.628-7.359,173.516-53.957,210.369
					C2469.195,2604.41,2436.772,2614.175,2404.724,2614.178z M2496.394,2366.279l-156.248,11.125
					c-5.104,0.366-9.383,3.608-10.175,7.708c-13.081,67.893-15.328,149.064,17.59,173.278c32.313,23.772,89.267,21.99,121.889-3.812
					c25.876-20.462,40.523-87.478,39.18-179.265c-0.039-2.793-1.572-4.78-2.852-5.953
					C2503.371,2367.149,2499.978,2366.042,2496.394,2366.279L2496.394,2366.279z M2495.012,2346.865h0.049H2495.012z"/>
			</g>
			<g>
				<path style="fill:#371A45;" d="M2371.546,2409.197c5.108,48.687-0.979,106.079,34.43,143.202
					c10.195,10.027,23.374,15.984,38.027,19.036c10.571,2.154,17.384,12.503,15.182,23.065
					c-2.26,11.136-13.845,18.007-24.702,14.681c-20.215-5.927-39.972-17.157-53.77-33.508
					c-14.142-16.444-21.865-36.246-25.912-55.234c-8.05-36.585-3.604-74.194-3.816-109.978
					C2351.004,2397.426,2369.9,2396.231,2371.546,2409.197L2371.546,2409.197z"/>
			</g>
			<g>
				<path style="fill:#371A45;" d="M2402.219,1975.656c-57.639,5.642-115.322,16.478-170.749,33.258
					c-24.888,6.61-35.661-29.256-11.139-37.397c59.96-10.765,120.764-14.189,181.599-12.63
					C2412.393,1959.359,2412.684,1974.839,2402.219,1975.656L2402.219,1975.656z"/>
			</g>
			<g style="opacity:0.35;">
				<path style="fill:#371A45;" d="M1977.828,2701.389c-1.804,8.964-3.476,17.762-5.014,26.437
					C1974.308,2719.152,1975.98,2710.354,1977.828,2701.389z"/>
			</g>
			<g>
				<path style="fill:#FFFFFF;" d="M2500.54,2516.055c-0.055,2.178-0.164,4.356-0.219,6.534
					c-2.184,52.762-10.594,97.48-25.124,132.55c-0.108,0.222-0.217,0.49-0.327,0.711c-0.382,0.934-0.765,1.823-1.147,2.801
					c-9.667,22.448-21.791,43.695-36.101,63.431c-46.149,64.008-115.074,113.259-198.689,143.708
					c-37.74,13.69-139.487,47.695-275.916,49.117c-17.968,0.222-36.647-0.222-55.871-1.245
					c-84.981-4.756-289.734-44.228-357.567-147.353c-45.494-69.076-34.952-267.99,20.099-569.985
					c0.765-4.223,1.584-8.534,2.294-12.846c1.42-7.424,2.84-14.891,4.26-22.448c2.227-11.852,3.736-19.842,4.151-22.047
					c37.208-198.325,61.273-326.596,103.569-390.845c5.291-8.037,23.869-34.823,32.632-74.587
					c3.394-15.401,4.376-28.485,4.662-37.293c290.974-57.626,525.539-19.071,582.71,102.557
					c9.513,20.239,15.695,46.136,13.404,79.682c37.06,82.403,64.023,147.596,77.772,184.157c4.697,12.49,9.174,24.848,13.544,37.16
					c8.028,22.936,15.621,45.606,22.666,67.831c0.381,1.156,0.765,2.356,1.147,3.556
					C2481.861,2268.867,2503.871,2408.529,2500.54,2516.055z"/>
			</g>
			<g style="opacity:0.25;">
				<path style="fill:#371A45;" d="M2473.773,2621.448c-41.058,108.951-125.272,191.567-234.886,237.17
					c-42.694,17.769-167.461,65.415-331.706,54.837c-85.003-5.429-289.712-50.645-357.592-168.714
					c-21.101-36.687-30.15-105.312-28.25-202.9c1.766,57.938,16.728,129.871,31.339,155.79
					c72.221,128.111,269.346,102.444,354.348,106.882c164.242,8.635,289.021-30.461,331.72-45.051
					c109.626-37.426,193.86-105.216,234.946-194.593c17.141-37.23,26.245-86.55,27.047-145.565
					C2501.965,2502.229,2492.801,2571,2473.773,2621.448z"/>
			</g>
			<g style="opacity:0.35;">
				<path style="fill:#371A45;" d="M1539.31,2308.118c-10.641,90.248-16.778,168.472-17.971,233.724
					C1519.48,2481.054,1525.706,2402.623,1539.31,2308.118z"/>
			</g>
			<g>
				<path style="fill:#371A45;" d="M1674.088,1778.508c-0.704,29.674-6.382,58.396-13.006,87.079
					c-18.633,83.331-39.285,173.858-55.489,257.08c-32.359,171.051-66.921,344.267-65.247,518.484
					c0.92,28.54,3.197,57.195,10.039,83.63c20.647,90.456,149.989,134.167,230.61,154.091c27.838,8.311,98.787,15.752,128.266,19.43
					c56.36,2.26,127.305-1.598,187.463-13.409c91.703-17.738,184.274-47.314,258.197-106.129
					c59.906-47.627,106.997-113.78,122.486-189.313c26.719-139.919,0.191-285.28-33.25-422.447
					c-31.84-123.76-76.452-244.297-129.078-361.041c-3.703-8.215-0.045-17.876,8.17-21.579c8.215-3.703,17.862-0.077,21.565,8.138
					c79.919,177.303,144.006,364.075,169.247,557.884c20.904,178.946,13.667,334.031-138.282,454.657
					c-78.459,62.207-175.893,93.725-273.044,112.258c-65.01,11.995-131.422,16.418-197.482,13.322
					c-30.894-3.939-102.865-11.599-131.843-20.515c-93.51-23.787-228.195-72.532-252.5-177.768
					c-7.613-30.374-9.65-60.511-10.49-90.385c-0.805-177.435,35.046-351.765,68.735-524.654
					c16.698-83.296,37.851-174.376,57.105-257.515c6.642-28.534,14.591-56.77,27.397-83.806c1.296-2.735,4.563-3.901,7.298-2.606
					C1672.983,1774.355,1674.151,1776.4,1674.088,1778.508L1674.088,1778.508z"/>
			</g>
			<g>
				<path style="fill:#FFFFFF;" d="M1986.133,2812.634c0,0-30.081,356.929,38.579,606.104c0,0-184.184,105.761-67.115,187.33
					c127.855,89.084,461.67,86.386,521.322-28.549c61.01-117.552-31.163-665.645-21.714-1053.843L1986.133,2812.634z"/>
			</g>
			<g style="opacity:0.25;">
				<path style="fill:#371A45;" d="M2456.793,2399.245c5.024,463.652,78.154,1043.091,22.119,1175.913
					c-59.641,141.4-393.448,144.718-521.302,35.13c-29.055-24.924-39.541-51.663-38.886-77.776
					c145.494,83.287,430.804,69.761,485.528-59.992c51.557-122.05-6.171-622.022-19.715-1062.19
					c-58.438,5.322-129.547,3.194-211.197-15.155l-2.185,50.285c-2.567,58.49-46.368,103.89-97.27,100.947l-430.367-24.673
					c-50.956-2.943-90.606-53.103-88.04-111.592l2.403-54.606l9.121-207.968c2.458-58.489,46.26-103.889,97.269-100.946
					l430.313,24.673c6.336,0.376,12.507,1.441,18.406,3.256c41.78,12.274,71.873,57.112,69.634,108.336l-1.967,45.338
					c43.092,5.511,204.916,22.168,319.662-21.041c-2.185,74.332-10.595,137.33-25.124,186.738c-0.109,0.313-0.218,0.689-0.327,1.002
					C2469.082,2396.427,2463.073,2397.868,2456.793,2399.245z"/>
			</g>
			<g>
				<path style="fill:#371A45;" d="M1991.552,2813.09c8.151,101.475,3.767,202.121,7.664,303.455
					c4.169,100.241,15.607,200.964,41.226,297.857c0,0,3.207,12.094,3.207,12.094l-10.812,6.39
					c-39.999,24.666-126.298,87.443-87.948,139.351c8.677,11.601,21.85,20.595,34.116,28.156
					c23.922,13.788,50.047,23.642,76.769,31.134c104.014,30.014,306.233,35.667,391.11-39.208
					c9.002-8.288,16.363-18.277,20.704-29.729c10.698-28.439,13.1-63.719,14.925-94.865c3.22-81.591-1.73-163.774-6.698-245.439
					c-10.12-154.905-23.858-309.758-31.129-465.035c-3.619-77.601-11.753-156.058,7.085-233.709c0.724-2.986,3.732-4.82,6.718-4.095
					c2.188,0.535,3.752,2.28,4.156,4.36c11.75,57.49,11.9,115.643,13.12,173.931c1.705,96.813,9.316,193.307,15.962,290.024
					c8.263,116.196,18.167,232.547,22.817,349.149c1.683,43.794,2.414,88.172,0.565,132.348
					c-3.187,43.33-4.333,89.788-29.225,128.093c-20.452,28.2-52.833,46.844-84.311,58.737
					c-108.751,39.341-243.517,36.208-354.569,6.871c-45.916-13.243-106.738-36.446-133.171-78.536
					c-42.855-74.838,46.05-144.818,102.755-179.837c0.001,0-7.603,18.484-7.603,18.484c-26.661-99.817-37.216-202.302-43.54-304.906
					c-4.943-102.236-7.542-205.352,15.269-305.989c0.714-2.954,3.687-4.771,6.64-4.059
					C1989.745,2808.694,1991.396,2810.761,1991.552,2813.09L1991.552,2813.09z"/>
			</g>
			<g>
				<path style="fill:#371A45;" d="M2193.899,3217.044c-69.79,0-144.475-9.322-214.574-36.267
					c-8.41-3.235-12.607-12.673-9.375-21.086s12.678-12.6,21.086-9.375c211.549,81.33,477.701-9.987,480.365-10.92
					c8.5-2.986,17.812,1.509,20.788,10.014c2.976,8.505-1.507,17.812-10.014,20.788
					C2474.409,3172.915,2345.745,3217.044,2193.899,3217.044z"/>
			</g>
			<g>
				<ellipse style="fill:#FFFFFF;" cx="1530.202" cy="2445.362" rx="82.406" ry="76.795"/>
			</g>
			<g style="opacity:0.35;">
				<path style="fill:#371A45;" d="M1447.844,2447.452c1.245,42.396,39.109,75.861,84.603,74.7
					c45.494-1.16,81.402-36.507,80.157-78.903c-0.344-11.713-3.486-22.804-8.884-32.617c-12.461,26.263-40.342,44.982-73.202,45.821
					c-32.86,0.838-61.798-16.432-75.716-42.022C1449.987,2424.504,1447.5,2435.739,1447.844,2447.452z"/>
			</g>
			<g>
				<path style="fill:#371A45;" d="M1530.167,2538.472c-53.175,0.002-97.165-40.099-98.647-90.529l0,0
					c-0.702-23.862,8.186-46.798,25.022-64.585c18.038-19.055,43.912-30.38,70.989-31.07c54.347-1.507,99.846,39.207,101.352,90.493
					c0.702,23.862-8.186,46.8-25.022,64.588c-18.039,19.055-43.912,30.38-70.989,31.07
					C1531.969,2538.462,1531.067,2538.472,1530.167,2538.472z M1530.233,2384.883c-0.622,0-1.243,0.01-1.867,0.024
					c-18.468,0.47-36.009,8.083-48.124,20.884c-10.831,11.44-16.549,26.068-16.106,41.191v0.002
					c0.98,33.374,31.548,59.795,67.903,58.833c18.468-0.47,36.009-8.083,48.124-20.881c10.83-11.442,16.549-26.073,16.105-41.196
					C1595.304,2410.941,1565.859,2384.883,1530.233,2384.883z"/>
			</g>
			<g>
				<g style="opacity:0.35;">
					<path style="fill:#371A45;" d="M1526.771,2259.107c13.947-86.233,16.504-166.173,12.505-237.32
						c-1.83,41.094-5.956,84.226-13.238,129.132c-8.485,52.665-11.043,107.644-5.721,161.616
						C1521.752,2294.583,1523.951,2276.714,1526.771,2259.107z"/>
				</g>
				<g>
					<path style="fill:#FFFFFF;" d="M1606.303,2407.721l430.366,20.08c50.936,2.391,94.74-34.511,97.306-82.04l11.454-213.425
						c2.237-41.609-27.861-78.048-69.612-88.065c-5.909-1.457-12.071-2.308-18.422-2.615l-430.301-20.081
						c-51.001-2.392-94.805,34.512-97.306,82.039l-9.115,169.037l-2.403,44.388
						C1515.704,2364.568,1555.367,2405.329,1606.303,2407.721z"/>
				</g>
				<g>
					<path style="fill:#FFFFFF;" d="M2519.028,2128.248c0,0,39.866,29.485,41.683,75.05c2.101,52.68-33.237,74.087-33.237,74.087
						s-154.667,74.037-403.046,25.279c0,0-73.21-85.998,8.129-134.683C2132.556,2167.98,2394.686,2201.205,2519.028,2128.248z"/>
				</g>
				<g>
					<path style="fill:#FFFFFF;" d="M1606.303,2407.721l430.366,20.08c50.936,2.391,94.74-34.511,97.306-82.04l11.454-213.425
						c2.237-41.609-27.861-78.048-69.612-88.065c-5.909-1.457-12.071-2.308-18.422-2.615l-430.301-20.081
						c-51.001-2.392-94.805,34.512-97.306,82.039l-9.115,169.037l-2.403,44.388
						C1515.704,2364.568,1555.367,2405.329,1606.303,2407.721z"/>
				</g>
				<g style="opacity:0.25;">
					<path style="fill:#371A45;" d="M1606.303,2407.721l430.366,20.08c50.936,2.391,94.74-34.511,97.306-82.04l11.454-213.425
						c2.237-41.609-27.861-78.048-69.612-88.065c-25.25,13.984-41.289,22.937-41.289,22.937
						c-30.159,170.338-87.097,253.323-315.561,246.145c-98.617-3.122-160.064-20.03-198.294-40.702l-2.403,44.388
						C1515.704,2364.568,1555.367,2405.329,1606.303,2407.721z"/>
				</g>
				<g>
					<path style="fill:#371A45;" d="M2041.342,2447.157c-1.86,0-3.717-0.044-5.594-0.132l-430.332-20.086
						c-30.595-1.428-59.615-14.931-79.616-37.045c-18.677-20.654-28.167-46.891-26.717-73.88l11.474-213.455
						c3.125-58.131,55.837-103.13,117.409-100.209l430.332,20.089c30.597,1.428,59.615,14.931,79.616,37.045
						c18.677,20.654,28.165,46.891,26.717,73.878l-11.474,213.457C2150.126,2403.18,2100.515,2447.153,2041.342,2447.157z
						 M1622.371,2040.675c-38.924,0-71.482,28.004-73.412,63.947l-11.474,213.455c-0.897,16.681,5.083,33.025,16.837,46.023
						c13.176,14.57,32.452,23.472,52.887,24.428l430.332,20.086c40.626,1.931,75.221-26.751,77.213-63.857l11.474-213.457
						c0.897-16.681-5.083-33.025-16.837-46.02c-13.176-14.57-32.452-23.472-52.887-24.428l-430.332-20.089
						C1624.901,2040.704,1623.629,2040.675,1622.371,2040.675z"/>
				</g>
				<g>
					<path style="fill:#FFFFFF;" d="M1589.115,2405.336c5.519,1.34,11.227,2.135,17.189,2.385l430.366,20.08
						c37.327,1.726,70.815-17.581,87.038-46.818c5.917-10.615,9.553-22.539,10.203-35.221l5.134-94.815l1.693-31.283l4.692-87.327
						c2.565-47.528-37.098-88.289-88.034-90.68l-92.994-4.318c42.458,9.529,73.207,46.262,70.974,88.295l-6.159,115.287
						l-5.294,98.198c-2.567,47.468-46.37,84.431-97.307,82.039L1589.115,2405.336z"/>
				</g>
				<g style="opacity:0.25;">
					<path style="fill:#371A45;" d="M1589.115,2405.336c5.519,1.34,11.227,2.135,17.189,2.385l430.366,20.08
						c50.936,2.391,94.74-34.511,97.241-82.039l6.827-126.099c-12.023,21.775-32.938,48.217-64.209,49.637
						c-17.157,0.814-33.344-11.419-47.312-28.38l-5.294,98.198c-2.567,47.468-46.37,84.431-97.307,82.039L1589.115,2405.336z"/>
				</g>
				<g>
					<path style="fill:#371A45;" d="M2041.415,2441.914c-1.794,0-3.591-0.041-5.402-0.127l-430.364-20.101
						c-6.599-0.271-13.275-1.187-19.769-2.718l3.866-27.582l337.538,15.784c43.473,2.067,80.528-28.818,82.648-68.805l11.472-213.46
						c1.86-34.6-23.392-65.702-60.044-73.953l3.72-27.614l92.952,4.322c29.252,1.382,56.96,14.28,76.032,35.392
						c17.71,19.606,26.697,44.477,25.31,70.036l-11.472,213.433C2145.059,2400.118,2097.82,2441.914,2041.415,2441.914z
						 M1999.4,2412.075l37.925,1.772c43.493,2.099,80.528-28.82,82.649-68.808v-0.01l11.471-213.45
						c0.982-18.07-5.458-35.746-18.136-49.779c-14.112-15.618-34.734-25.169-56.583-26.2l-34.866-1.621
						c18.482,19.223,28.95,45.009,27.475,72.427l-11.472,213.45C2036.315,2369.046,2021.597,2394.733,1999.4,2412.075z"/>
				</g>
				<g>
					<path style="fill:#22A7F0;" d="M1859.862,2226.19c-0.376,7.895,8.503,72.118,8.503,72.118s21.664,0.895,48.266,1.994
						c33.235,1.373,61.702-29.582,63.584-69.14c1.882-39.558-23.535-72.739-56.769-74.112c-22.429-0.927-48.266-1.994-48.266-1.994
						S1860.474,2213.328,1859.862,2226.19z"/>
				</g>
				<g style="opacity:0.35;">
					<path style="fill:#371A45;" d="M1859.862,2226.19c-0.376,7.895,8.503,72.118,8.503,72.118s21.664,0.895,48.266,1.994
						c33.235,1.373,61.702-29.582,63.584-69.14c1.882-39.558-23.535-72.739-56.769-74.112c-22.429-0.927-48.266-1.994-48.266-1.994
						S1860.474,2213.328,1859.862,2226.19z"/>
				</g>
				<g>
					<path style="fill:#371A45;" d="M1918.74,2313.163c-0.878,0-1.755-0.017-2.638-0.054l-33.522-1.385
						c-14.787-0.612-26.885-11.279-28.769-25.361c-7.111-53.243-6.852-58.718-6.755-60.778v-0.007
						c0.366-7.659,4.534-27.93,12.388-60.256c3.306-13.622,16.298-23.087,30.834-22.47l33.696,1.392
						c17.573,0.726,34.198,8.719,46.813,22.507c15.299,16.722,23.404,40.421,22.234,65.022
						C1990.856,2277.259,1957.799,2313.163,1918.74,2313.163z M1872.669,2226.743c-0.012,1.18,0.273,9.192,6.552,56.224
						c0.224,1.667,2.165,3.05,4.42,3.142l33.52,1.385c26.207,1.151,48.704-24.464,50.25-56.941
						c0.848-17.829-4.814-34.776-15.54-46.498c-8.086-8.839-18.099-13.749-28.954-14.197l-33.698-1.392
						c-2.296-0.095-4.441,1.182-4.861,2.906C1876.091,2205.389,1872.903,2222.26,1872.669,2226.743z"/>
				</g>
				<g>
					
						<ellipse transform="matrix(0.0624 -0.998 0.998 0.0624 -467.4487 3955.7537)" style="fill:#22A7F0;" cx="1871.773" cy="2226.682" rx="71.71" ry="60.224"/>
				</g>
				<g style="opacity:0.7;">
					<path style="fill:#FFFFFF;" d="M1812.262,2239.598c7.399-31.975,32.619-55.059,61.482-53.868
						c28.806,1.139,51.747,26.245,56.087,58.686c1.138-4.911,1.875-9.981,2.096-15.265c1.891-39.546-23.524-72.707-56.738-74.107
						c-33.273-1.347-61.689,29.587-63.58,69.132C1811.331,2229.46,1811.567,2234.583,1812.262,2239.598z"/>
				</g>
				<g style="opacity:0.35;">
					<path style="fill:#371A45;" d="M1868.35,2298.284c33.271,1.4,61.745-29.533,63.579-69.132
						c0.502-9.98-0.773-19.584-3.475-28.332c-8.721,29.308-32.856,49.99-60.172,48.903c-24.797-1.037-45.267-19.849-53.263-45.775
						c-1.881,6.406-3.074,13.185-3.408,20.229C1809.72,2263.775,1835.135,2296.937,1868.35,2298.284z"/>
				</g>
				<g>
					<path style="fill:#371A45;" d="M1870.475,2311.169c-0.878,0-1.755-0.017-2.638-0.054c-17.573-0.727-34.198-8.719-46.813-22.507
						c-15.299-16.722-23.404-40.421-22.234-65.022c2.213-46.51,36.852-82.982,76.917-81.337
						c17.573,0.726,34.198,8.719,46.813,22.507c15.299,16.722,23.404,40.421,22.234,65.022
						C1942.59,2275.264,1909.533,2311.169,1870.475,2311.169z M1873.049,2167.833c-25.478,0-47.134,25.156-48.648,56.973
						c-0.848,17.829,4.814,34.776,15.54,46.498c8.086,8.839,18.099,13.748,28.954,14.197c26.292,1.107,48.704-24.464,50.25-56.941
						c0.848-17.829-4.814-34.775-15.54-46.498c-8.086-8.839-18.099-13.748-28.954-14.197
						C1874.117,2167.842,1873.58,2167.833,1873.049,2167.833z"/>
				</g>
				<g>
					<path style="fill:#371A45;" d="M1740.178,2428.241c-0.151,0-0.302-0.002-0.456-0.007c-8.732-0.249-15.611-7.528-15.362-16.259
						l3.7-130.546c0.156-5.514-2.781-10.787-7.859-14.104l-39.96-26.098c-14.716-9.614-22.992-25.498-22.141-42.49l8.763-175.233
						c0.434-8.724,7.869-15.472,16.586-15.006c8.724,0.434,15.443,7.861,15.006,16.586l-8.761,175.233
						c-0.283,5.638,2.65,11.03,7.847,14.426l39.958,26.097c14.36,9.38,22.653,24.888,22.183,41.486l-3.7,130.546
						C1755.737,2421.45,1748.707,2428.241,1740.178,2428.241z"/>
				</g>
			</g>
			<g>
				<path style="fill:#FFFFFF;" d="M2519.028,2128.248c0,0,39.866,29.485,41.683,75.05c2.101,52.68-33.237,74.087-33.237,74.087
					s-154.667,74.037-403.046,25.279c0,0-73.21-85.998,8.129-134.683C2132.556,2167.98,2394.686,2201.205,2519.028,2128.248z"/>
			</g>
			<g style="opacity:0.25;">
				<path style="fill:#371A45;" d="M2560.694,2203.331c2.099,52.619-33.217,74.021-33.217,74.021s-154.64,74.064-403.074,25.29
					c0,0-24.069-28.356-29.228-61.628c1.173,1.642,1.936,2.496,1.936,2.496c181.555,35.669,313.028,5.683,370.619-13.029
					c40.005-12.998,66.71-46.894,65.723-84.713c-0.014-0.52-0.031-1.043-0.052-1.569c-0.023-0.878-0.046-1.757-0.224-2.599
					C2544.819,2154.506,2559.628,2176.031,2560.694,2203.331z"/>
			</g>
			<g>
				<path style="fill:#371A45;" d="M2291.722,2335.733c-50.228,0-107.324-4.668-170.438-17.059l-5.59-1.097l-3.693-4.337
					c-1.682-1.979-41.135-48.997-33.047-98.14c4.127-25.066,19.34-45.63,45.223-61.119l4.834-2.893l5.594,0.707
					c2.564,0.324,258.088,31.662,376.165-37.62l9.295-5.453l8.663,6.408c1.884,1.394,46.179,34.744,48.285,87.516
					c2.455,61.59-39.307,87.616-41.086,88.694l-1.409,0.76C2529.644,2294.437,2441.089,2335.733,2291.722,2335.733z
					 M2133.553,2287.806c226.574,42.903,373.33-19.094,386.016-24.747c3.91-2.75,26.387-20.279,24.84-59.113
					c-1.029-25.766-17.571-45.945-27.584-55.871c-121.29,62.594-340.746,41.289-380.436,36.791
					c-14.626,9.858-22.892,21.49-25.218,35.431C2106.612,2247.631,2125.628,2276.995,2133.553,2287.806z"/>
			</g>
			<g>
				<path style="fill:#371A45;" d="M2301.875,3447.689c-73.849-35.685-160.555-43.473-239.694-23.286
					c-10.256,2.272-23.82,7.325-33.991,10.347c-20.684,6.031-30.356-24.112-9.923-31.19
					C2113.525,3380.498,2218.861,3395.06,2301.875,3447.689L2301.875,3447.689z"/>
			</g>
			<g>
				<g>
					<path style="fill:#F95427;" d="M1942.677,1915.912v648.067c0,3.217-0.373,6.293-1.026,9.277
						c-4.242,18.693-20.884,32.632-40.883,32.632h-447.615c-19.999,0-36.641-13.938-40.883-32.632
						c-0.652-2.984-1.025-6.06-1.025-9.277v-648.067c0-23.169,18.74-41.908,41.908-41.908h447.615
						C1923.937,1874.004,1942.677,1892.744,1942.677,1915.912z"/>
				</g>
				<g>
					<path style="fill:#FFFFFF;" d="M1865.135,2547.617h-376.347c-19.457,0-35.231-15.773-35.231-35.231v-544.88
						c0-19.458,15.773-35.231,35.231-35.231h376.347c19.457,0,35.231,15.773,35.231,35.231v544.88
						C1900.365,2531.843,1884.592,2547.617,1865.135,2547.617z"/>
				</g>
				<g style="opacity:0.25;">
					<path style="fill:#371A45;" d="M1942.677,2330.849v233.131c0,0.032,0,0.064,0,0.096c-0.012,5.13-4.412,9.18-9.542,9.18
						h-512.347c-5.13,0-9.53-4.05-9.542-9.18c0-0.032,0-0.064,0-0.096v-233.131H1942.677z"/>
				</g>
				<g>
					<path style="fill:#371A45;" d="M1900.772,2617.39h-447.625c-29.449,0-53.406-23.957-53.406-53.406v-648.077
						c0-29.449,23.957-53.406,53.406-53.406h447.625c29.449,0,53.409,23.957,53.409,53.406v648.077
						C1954.181,2593.433,1930.222,2617.39,1900.772,2617.39z M1453.147,1885.507c-16.761,0-30.4,13.639-30.4,30.4v648.077
						c0,16.761,13.639,30.4,30.4,30.4h447.625c16.764,0,30.402-13.639,30.402-30.4v-648.077c0-16.761-13.639-30.4-30.402-30.4
						H1453.147z"/>
				</g>
				<g>
					<g>
						<path style="fill:#FFFFFF;" d="M1376.283,2139.72c122.147-36.23,259.084-48.995,410.809-38.297
							c8.163,0.576,16.394-1.041,23.534-5.039c38.922-21.796,96.16-38.772,130.813-22.146c19.696,9.449,25.359,34.976,12.662,52.752
							l-9.093,12.73c91.711-3.275,93.669,131.531,51.149,226.551c-23.193,51.83-73.444,86.163-130.089,90.119
							c-148.852,10.396-289.924,10.226-419.652-5.347c-30.823-3.7-60.79-13.478-86.99-30.13
							c-70.41-44.752-106.212-128.289-76.377-262.546L1376.283,2139.72z"/>
					</g>
					<g style="opacity:0.25;">
						<g>
							<path style="fill:#371A45;" d="M1941.438,2074.222c-0.233-0.106-0.492-0.175-0.726-0.278l-0.366,0.485
								c0.521-0.017,1.001,0.025,1.517,0.016C1941.716,2074.376,1941.586,2074.289,1941.438,2074.222z"/>
						</g>
						<g>
							<path style="fill:#371A45;" d="M2017.476,2192.585c-2.609,32.123-11.803,66.289-25.982,96.279
								c-23.192,49.059-73.443,81.555-130.088,85.3c-148.853,9.84-289.925,9.679-419.652-5.061
								c-30.823-3.502-60.79-12.757-86.99-28.519c-41.417-24.916-70.836-62.552-81.988-115.171
								c-3.545,86.092,30.542,143.19,86.65,176.944c26.2,15.762,56.167,25.017,86.99,28.519
								c129.727,14.741,270.8,14.901,419.652,5.061c56.645-3.744,106.895-36.241,130.088-85.3
								C2020.166,2299.854,2029.981,2237.074,2017.476,2192.585z"/>
						</g>
					</g>
					<g>
						<path style="fill:#371A45;" d="M1374.762,2134.594c129.846-53.496,273.774-57.686,412.171-49.697
							c9.415,1.42,17.114-3.867,25.038-8.046c26.411-13.165,53.908-22.933,83.786-25.724c35.611-3.743,78.764,9.194,81.484,50.852
							c1.247,14.072-4.225,28.075-12.955,38.923c0,0-5.982,8.273-5.982,8.273c0.006,0.128-13.882-25.781-13.879-25.761
							c52.95-2.589,85.072,38.103,92.087,87.16c6.54,41.255,0.716,83.29-10.817,122.743
							c-15.32,56.19-49.143,104.133-104.372,126.549c-25.313,11.365-54.178,13.175-81.504,14.595
							c-104.31,6.312-209.04,7.84-313.436,0.493c-88.255-6.625-161.992-9.116-223.849-82.919
							c-35.9-43.663-48.284-102.261-46.014-157.132c0.981-27.199,5.002-53.906,10.601-80.077
							c1.885-8.811,10.556-14.426,19.367-12.542c8.906,1.897,14.532,10.752,12.488,19.621
							c-10.247,48.037-15.136,99.038-2.516,146.501c17.49,71.964,82.896,120.51,155.447,126.832
							c76.699,8.987,153.9,12.314,231.189,11.952c51.567-0.223,103.166-2.189,154.721-5.3c23.685-1.49,49.091-2.206,70.991-12.162
							c46.212-18.697,72.89-59.002,85.618-105.752c10.226-34.964,15.519-72.221,9.893-108.07
							c-4.674-32.256-22.733-62.286-58.971-59.875c-13.185,0.785-21.525-15.525-13.618-25.796
							c2.431-3.637,8.404-11.104,10.61-14.925c4.616-8.11,2.705-19.82-5.038-25.257c-31.547-17.286-80.275,0.098-111.216,14.7
							c-12.519,7.273-26.591,12.756-41.296,10.896c-109.145-8.757-219.317-4.649-327.036,15.25
							c-26.695,4.804-52.991,10.189-79.952,13.945c-2.988,0.502-5.855-1.59-6.235-4.612
							C1371.248,2137.798,1372.616,2135.527,1374.762,2134.594L1374.762,2134.594z"/>
					</g>
					<g>
						<path style="fill:#371A45;" d="M1540.861,2471.261c-1.809,0-3.644-0.422-5.36-1.314
							c-50.291-26.11-81.512-84.672-85.661-160.668c-4.929-90.3,29.057-175.83,84.567-212.833
							c5.355-3.566,12.593-2.126,16.162,3.232c3.571,5.355,2.123,12.593-3.232,16.162c-48.126,32.079-78.646,111.103-74.221,192.169
							c3.688,67.552,30.341,119.037,73.127,141.252c5.711,2.967,7.939,10.002,4.973,15.713
							C1549.14,2468.969,1545.073,2471.261,1540.861,2471.261z"/>
					</g>
				</g>
				<g>
					<path style="fill:#371A45;" d="M1728.289,1988.217h-116.641c-33.388,0-60.553-27.165-60.553-60.554v-55.99
						c0-5.148,4.176-9.324,9.324-9.324h219.101c5.148,0,9.324,4.176,9.324,9.324v55.99
						C1788.843,1961.052,1761.678,1988.217,1728.289,1988.217z M1569.743,1880.997v46.666c0,23.106,18.799,41.906,41.905,41.906
						h116.641c23.106,0,41.906-18.799,41.906-41.906v-46.666H1569.743z"/>
				</g>
			</g>
			<g>
				<g>
					<path style="fill:#FFFFFF;" d="M2439.146,2792.355c-111.6-80.973-183.624-187.912-200.452-330.979l9.23-6.153l32.725-21.817
						c54.915-185.069,48.436-380.114-4.662-582.71l-67.921-181.433l25.966-56.313c139.804,81.253,262.033,198.541,332.75,346.549
						C2670.691,2176.687,2663.792,2459.977,2439.146,2792.355z"/>
				</g>
				<g>
					<path style="fill:#371A45;" d="M2281.014,1849.378c61.433,152.126,69.415,356.299,33.087,515.742
						c-5.01,21.303-13.254,51.705-20.042,72.245c-0.875,3.2-2.855,5.808-5.415,7.518c-0.234,0.191-41.945,27.937-42.195,28.13
						c0,0,6.132-13.272,6.132-13.272c3.845,32.137,10.71,63.838,20.999,94.366c30.4,92.669,95.033,170.523,173.778,226.928
						c-0.001,0-19.8,3.489-19.8,3.489c30.429-45.782,61.442-96.953,86.358-145.967c205.891-394.902,98.776-787.481-286.915-1013.514
						c0.003,0,19.727-6.234,19.727-6.234l-25.974,56.307c-8.187,16.698-32.718,5.037-25.398-11.716c0,0,25.974-56.307,25.974-56.307
						c3.216-7.016,11.521-10.093,18.531-6.857c326.075,187.619,486.267,525.608,365.416,890.71
						c-26.639,82.314-64,161.95-108.409,236.045c-12.291,21.933-32.534,51.883-46.137,73.194c-4.282,6.679-13.49,8.293-19.801,3.488
						c-55.141-39.984-104.486-89.233-140.29-147.626c-36.146-58.293-57.898-125.125-65.837-193.036
						c-0.645-5.388,1.911-10.447,6.132-13.272l41.954-27.969l-5.649,7.657c59.15-186.468,50.707-388.625,3.717-577.413
						c-0.681-2.776,1.017-5.58,3.794-6.262C2277.534,1845.092,2280.174,1846.745,2281.014,1849.378L2281.014,1849.378z"/>
				</g>
				<g>
					<path style="fill:#371A45;" d="M2242.022,2555.308c-15.34-51.438-23.902-105.16-24.306-159.063
						c-0.033-4.494,3.582-8.164,8.076-8.198c4.552-0.05,8.102,3.651,8.239,8.065c5.842,52.271,19.529,102.704,39.267,149.887
						C2281.42,2568.465,2247.815,2578.616,2242.022,2555.308L2242.022,2555.308z"/>
				</g>
				<g>
					<path style="fill:#371A45;" d="M2614.696,2413.335c-4.834,0-9.351-3.03-11.016-7.857
						c-33.951-98.391-168.495-152.65-287.908-116.112c-6.15,1.882-12.674-1.58-14.555-7.735c-1.882-6.155,1.58-12.671,7.735-14.555
						c130.887-40.043,278.901,21.078,316.76,130.802c2.101,6.084-1.131,12.717-7.215,14.816
						C2617.238,2413.13,2615.956,2413.335,2614.696,2413.335z"/>
				</g>
				<g style="opacity:0.25;">
					<g>
						<path style="fill:#371A45;" d="M2439.146,2792.355c-111.6-80.973-183.624-187.912-200.452-330.979l9.23-6.153
							c7.412,33.844,17.668,66.895,36.221,95.938c27.271,42.701,77.291,75.006,127.124,65.916
							c53.796-9.789,88.665-61.907,110.248-112.113c42.795-99.48,58.551-208.89,59.53-317.134
							c0.7-76.312-5.734-152.437-14.265-228.329C2670.691,2176.687,2663.792,2459.977,2439.146,2792.355z"/>
					</g>
				</g>
			</g>
			<g>
				<g>
					<path style="fill:#FFFFFF;" d="M1375.46,1345c45.929,97.476,116.784,183.954,209.154,249.36
						c18.843,13.328,38.505,25.78,59.047,37.254c9.976,5.612,20.242,10.969,30.681,16.174
						c31.541,15.518,63.739,28.259,96.367,38.321c28.101,8.74,56.541,15.444,85.036,20.259c34.411,5.832,68.989,8.808,103.393,9.127
						c12.548,0.074,25.061-0.179,37.537-0.758c228.347-11.085,444.523-140.119,554.468-356.217
						c162.027-318.3,32.107-704.85-290.071-863.414c-62.073-30.495-126.793-50.429-191.941-60.222
						c-7.603-1.216-15.273-2.219-22.953-3.061c-20.525-2.39-41.052-3.807-61.527-4.249c-47.355-1.008-94.463,3.133-140.429,12.09
						c-45.962,8.905-90.893,22.675-133.843,40.983c-13.66,5.813-27.127,12.069-40.403,18.823
						c-19.888,10.13-39.282,21.205-58.139,33.392c-94.034,60.399-173.615,145.462-227.567,251.512
						C1291.057,967.469,1294.476,1173.116,1375.46,1345z"/>
					<path style="fill:#371A45;" d="M1963.408,1717.28c-1.428,0-2.854-0.005-4.281-0.012c-34.871-0.322-69.751-3.401-103.68-9.151
						c-28.984-4.897-57.67-11.732-85.264-20.313c-32.938-10.158-65.448-23.084-96.623-38.425
						c-11.433-5.697-21.493-11.001-30.771-16.22c-20.179-11.272-40.097-23.84-59.198-37.352
						c-90.237-63.891-162.762-150.356-209.738-250.051c-84.725-179.828-81.505-384.736,8.834-562.187
						c52.219-102.644,131.126-189.854,228.191-252.201c18.375-11.874,37.988-23.138,58.294-33.479
						c13.015-6.623,26.646-12.973,40.514-18.875c43.066-18.358,88.216-32.184,134.2-41.094
						c46.418-9.044,93.798-13.102,140.803-12.12c20.459,0.441,41.216,1.874,61.694,4.261c8.191,0.897,15.728,1.901,23.028,3.069
						c66.482,9.994,131.233,30.312,192.442,60.383c156.88,77.21,273.399,210.232,328.093,374.569
						c54.262,163.032,41.043,337.492-37.22,491.242c-106.247,208.831-319.28,345.695-555.966,357.183
						C1985.715,1717.022,1974.516,1717.28,1963.408,1717.28z M1377.066,1344.245c46.713,99.141,118.838,185.127,208.575,248.667
						c18.999,13.439,38.81,25.939,58.884,37.152c9.229,5.192,19.24,10.47,30.609,16.135c31.002,15.255,63.335,28.113,96.099,38.215
						c27.446,8.537,55.978,15.333,84.806,20.203c33.744,5.721,68.437,8.783,103.115,9.102c12.434,0.075,25.035-0.18,37.437-0.756
						c235.411-11.428,447.298-147.551,552.97-355.248c77.832-152.899,90.978-326.389,37.018-488.512
						c-54.394-163.427-170.272-295.721-326.291-372.506c-60.88-29.91-125.285-50.116-191.421-60.059
						c-7.259-1.163-14.74-2.157-22.882-3.049c-20.384-2.377-41.026-3.8-61.373-4.239c-46.742-0.995-93.874,3.059-140.052,12.057
						c-45.738,8.861-90.649,22.612-133.485,40.874c-13.792,5.87-27.35,12.186-40.294,18.772
						c-20.196,10.284-39.704,21.488-57.982,33.298c-96.538,62.011-175.013,148.743-226.947,250.826
						C1296.017,961.634,1292.826,1165.424,1377.066,1344.245L1377.066,1344.245z"/>
				</g>
				<g style="opacity:0.25;">
					<path style="fill:#371A45;" d="M2551.14,1358.503c-109.925,216.123-326.134,345.167-554.478,356.217
						c-12.477,0.595-24.981,0.851-37.511,0.765c-34.415-0.303-68.984-3.304-103.393-9.11c-28.497-4.839-56.951-11.524-85.031-20.255
						c-32.649-10.054-64.831-22.796-96.398-38.317c-10.412-5.239-20.677-10.571-30.677-16.165
						c-20.543-11.488-40.182-23.975-59.035-37.288c-92.37-65.408-163.244-151.858-209.165-249.366
						c-25.24-53.543-42.957-110.407-52.553-168.824c45.981,92.032,114.535,173.576,202.655,235.981
						c18.827,13.366,38.493,25.8,59.036,37.288c9.959,5.608,20.225,10.939,30.677,16.165c31.567,15.521,63.749,28.262,96.358,38.331
						c28.121,8.717,56.535,15.416,85.031,20.254c34.408,5.806,69.018,8.794,103.393,9.112c12.57,0.071,25.074-0.184,37.551-0.78
						c228.345-11.05,444.514-140.081,554.479-356.217c64.183-126.067,82.51-262.835,61.285-391.876
						C2640.696,958.969,2646.79,1170.636,2551.14,1358.503z"/>
				</g>
				<g>
					<path style="fill:#371A45;" d="M1963.403,1729.173c-1.453,0-2.901-0.005-4.349-0.012c-35.533-0.329-71.048-3.464-105.594-9.319
						c-29.5-4.985-58.708-11.942-86.809-20.681c-33.505-10.333-66.604-23.494-98.342-39.11c-11.664-5.816-21.9-11.211-31.348-16.525
						c-20.515-11.459-40.794-24.255-60.239-38.01c-91.909-65.075-165.78-153.145-213.626-254.69l0,0
						c-86.305-183.179-83.026-391.903,8.995-572.654c53.172-104.519,133.522-193.322,232.359-256.808
						c18.689-12.079,38.659-23.548,59.325-34.071c13.261-6.747,27.138-13.214,41.252-19.221
						c43.831-18.685,89.791-32.757,136.596-41.825c47.239-9.205,95.509-13.373,143.319-12.335
						c20.835,0.448,41.967,1.906,62.818,4.337c8.305,0.909,16.032,1.94,23.531,3.14c67.579,10.158,133.5,30.841,195.806,61.451
						c159.766,78.629,278.426,214.111,334.133,381.487c55.276,166.074,41.813,343.786-37.905,500.393
						c-108.178,212.624-325.053,351.972-565.987,363.667C1986.085,1728.91,1974.694,1729.173,1963.403,1729.173z M1387.823,1339.174
						c45.842,97.291,116.622,181.675,204.689,244.03c18.653,13.195,38.105,25.469,57.811,36.477
						c9.085,5.109,18.926,10.297,30.115,15.874c30.385,14.95,62.133,27.575,94.298,37.493c26.968,8.388,54.979,15.06,83.285,19.842
						c33.133,5.616,67.194,8.622,101.243,8.936c12.193,0.066,24.579-0.176,36.777-0.746
						c231.135-11.218,439.181-144.857,542.922-348.759c76.376-150.044,89.279-320.282,36.333-479.363
						c-53.382-160.385-167.118-290.221-320.26-365.593c-59.773-29.366-123.008-49.206-187.938-58.969
						c-7.174-1.146-14.463-2.118-22.407-2.989c-20.094-2.34-40.36-3.739-60.334-4.171c-45.923-0.953-92.182,3.008-137.522,11.84
						c-44.928,8.705-89.03,22.209-131.094,40.143c-13.553,5.768-26.863,11.966-39.565,18.431
						c-19.833,10.099-38.985,21.098-56.922,32.689c-94.79,60.887-171.825,146.025-222.803,246.229
						C1308.29,963.74,1305.146,1163.698,1387.823,1339.174L1387.823,1339.174z"/>
				</g>
				<g>
					<path style="fill:#371A45;" d="M1963.405,1731.823c-1.458,0-2.913-0.005-4.366-0.015c-35.685-0.329-71.338-3.476-106.023-9.356
						c-29.615-5.002-58.94-11.988-87.153-20.764c-33.632-10.372-66.862-23.584-98.725-39.261
						c-11.718-5.841-21.987-11.257-31.477-16.593c-20.591-11.503-40.948-24.347-60.468-38.156
						c-92.285-65.341-166.452-153.767-214.493-255.724l0,0c-86.656-183.925-83.365-393.497,9.029-574.985
						c53.387-104.936,134.058-194.098,233.29-257.837c18.758-12.12,38.807-23.635,59.554-34.2
						c13.314-6.777,27.248-13.268,41.418-19.299c44-18.758,90.139-32.886,137.127-41.988c47.42-9.239,95.826-13.385,143.882-12.383
						c20.915,0.451,42.132,1.916,63.067,4.356c8.329,0.912,16.101,1.948,23.64,3.154c67.825,10.197,134.007,30.958,196.557,61.69
						c160.407,78.946,279.547,214.971,335.479,383.027c55.5,166.752,41.984,345.185-38.059,502.43
						c-108.607,213.467-326.335,353.371-568.22,365.111C1986.168,1731.557,1974.74,1731.823,1963.405,1731.823z M1390.22,1338.046
						c45.647,96.877,116.13,180.905,203.824,242.997c18.575,13.141,37.947,25.364,57.572,36.328
						c9.053,5.09,18.855,10.255,30.005,15.816c30.249,14.882,61.865,27.455,93.896,37.332c26.863,8.354,54.757,14.999,82.946,19.76
						c32.996,5.594,66.916,8.588,100.826,8.9c12.156,0.073,24.481-0.176,36.628-0.741
						c230.182-11.174,437.375-144.258,540.684-347.316c76.055-149.406,88.903-318.922,36.182-477.325
						c-53.156-159.707-166.416-288.997-318.917-364.053c-59.527-29.244-122.501-49.004-187.16-58.725
						c-7.155-1.143-14.402-2.109-22.304-2.976c-20.028-2.333-40.211-3.725-60.1-4.154c-45.706-0.997-91.799,2.991-136.959,11.791
						c-44.748,8.668-88.669,22.119-130.563,39.977c-13.5,5.746-26.753,11.92-39.405,18.355
						c-19.75,10.058-38.822,21.013-56.683,32.555c-94.403,60.637-171.115,145.42-221.879,245.205
						C1311.03,964.196,1307.91,1163.323,1390.22,1338.046L1390.22,1338.046z"/>
				</g>
				<g>
					<path style="fill:#371A45;" d="M1464.746,1484.219c365.236,285.171,896.513,127.536,952.593-325.084
						c38.154-307.936-238.05-581.394-540.23-597.484c-219.931-11.711-440.2,71.736-553.219,403.382
						c0,0-27.065,154.348,9.104,260.236c36.169,105.888,89.494,202.785,89.494,202.785L1464.746,1484.219z"/>
				</g>
				<g>
					<path style="fill:#220F2D;" d="M2417.322,1159.136c-56.068,452.61-587.357,610.238-952.58,325.099l-8.555-11.395
						c415.486,98.199,849.82-125.721,915.15-582.342C2410.956,972.365,2429.08,1064.106,2417.322,1159.136z"/>
				</g>
				<g>
					<path style="fill:#371A45;" d="M1871.26,1709.645c-34.112,0-68.493-2.435-102.876-7.386l-2.481-0.558
						c-33.671-10.384-66.901-23.596-98.764-39.273c-11.718-5.841-21.987-11.257-31.477-16.593
						c-20.591-11.503-40.948-24.347-60.468-38.156c-92.285-65.341-166.452-153.767-214.493-255.724l0,0
						c-86.656-183.925-83.365-393.497,9.029-574.985c53.387-104.936,134.058-194.095,233.29-257.837l1.409-0.904l1.565-0.6
						c80.408-30.846,172.325-43.758,273.209-38.386c181.549,9.668,362.244,101.786,483.363,246.419
						c109.055,130.231,158.484,287.725,139.177,443.474c-21.025,169.55-100.341,311.256-229.37,409.795
						C2160.969,1664.01,2018.835,1709.645,1871.26,1709.645z M1774.3,1670.141c174.087,24.735,348.352-17.926,478.266-117.143
						c121.904-93.099,196.872-227.223,216.794-387.876c18.177-146.663-28.635-295.294-131.813-418.507
						c-115.413-137.822-287.406-225.592-460.081-234.784c-95.609-5.095-182.482,6.906-258.225,35.67
						c-93.715,60.551-169.919,144.986-220.429,244.272c-87.787,172.434-90.919,371.544-8.593,546.274
						c45.647,96.877,116.13,180.905,203.824,242.997c18.575,13.141,37.947,25.364,57.572,36.328
						c9.053,5.09,18.855,10.258,30.005,15.816C1711.484,1647.878,1742.684,1660.322,1774.3,1670.141z"/>
				</g>
				<g>
					<path style="fill:#371A45;" d="M1871.847,1643.851c-145.761,0-293.566-50.284-417.142-146.771l-1.702-1.328l-44.809-59.832
						c-2.206-4.007-54.428-99.361-90.639-205.379c-37.099-108.604-10.87-261.857-9.736-268.326l0.626-2.445
						c98.776-289.843,290.363-429.257,569.532-414.412c162.006,8.627,323.244,90.817,431.312,219.861
						c97.35,116.242,141.471,256.85,124.24,395.922c-24.974,201.574-144.908,360.879-329.048,437.068
						C2030.409,1628.857,1951.427,1643.851,1871.847,1643.851z M1476.478,1472.677c181.575,140.852,417.237,177.424,615.527,95.378
						c172.976-71.567,285.651-221.346,309.14-410.926c16.108-129.99-25.4-261.733-116.873-370.958
						c-102.362-122.233-254.897-200.075-408.03-208.226c-262.391-13.995-442.867,117.614-536.479,391.098
						c-2.36,14.428-24.062,155.117,8.673,250.951c33.376,97.715,82.146,188.764,87.809,199.207L1476.478,1472.677z"/>
				</g>
				<g>
					<path style="fill:#FFFFFF;" d="M2708.153,1147.528c-0.128,127.008-76.282,233.691-170.125,238.262
						c-93.844,4.571-169.81-94.693-169.681-221.701c-0.014-0.795,0.009-1.64,0.038-2.441
						c1.065-125.933,76.903-231.29,170.087-235.821c72.495-3.536,134.318,54.904,158.647,140.211
						C2704.269,1091.158,2708.18,1118.645,2708.153,1147.528z"/>
				</g>
				<g style="opacity:0.25;">
					<path style="fill:#371A45;" d="M2708.153,1147.528c-0.128,127.008-76.282,233.691-170.125,238.262
						c-93.844,4.571-169.81-94.693-169.681-221.701c-0.014-0.795,0.009-1.64,0.038-2.441c10.303,12.531,26.348,24.584,48.108,19.198
						c38.11-9.45,106.572-94.452,106.572-94.452s75.423-9.319,174.055-20.356C2704.269,1091.158,2708.18,1118.645,2708.153,1147.528
						z"/>
				</g>
				<g>
					<path style="fill:#371A45;" d="M2531.691,1402.248c-38.593,0-75.041-15.367-105.818-44.711
						c-47.005-44.819-73.919-115.337-73.839-193.479c0.134-135.367,83.424-249.552,185.663-254.529
						c41.269-2.028,80.289,13.392,112.951,44.538c47.005,44.819,73.919,115.337,73.839,193.478
						c-0.134,135.37-83.424,249.552-185.666,254.527C2536.44,1402.19,2534.061,1402.248,2531.691,1402.248z M2544.711,941.989
						c-1.804,0-3.613,0.044-5.426,0.132c-85.14,4.149-154.5,103.724-154.62,221.972c-0.068,68.227,23.755,131.716,63.728,169.826
						c26.039,24.827,56.802,37.108,88.842,35.563c85.142-4.146,154.503-103.719,154.622-221.97l0,0
						c0.068-68.227-23.755-131.716-63.725-169.826C2603.563,954.26,2574.825,941.989,2544.711,941.989z"/>
				</g>
				<g>
					
						<ellipse transform="matrix(0.0968 -0.9953 0.9953 0.0968 1172.5105 3641.8306)" style="fill:#FFFFFF;" cx="2592.937" cy="1174.851" rx="182.828" ry="138.206"/>
					<path style="fill:#371A45;" d="M2585.307,1359.277c-16.995,0-33.779-4.137-49.794-12.388
						c-70.597-36.37-102.425-143.07-70.953-237.853c17.544-52.838,51.586-92.921,93.394-109.972
						c31.085-12.678,63.042-11.381,92.406,3.749c70.597,36.37,102.425,143.07,70.953,237.853l-1.75-0.58l1.75,0.58
						c-17.544,52.838-51.585,92.921-93.394,109.972C2613.789,1356.401,2599.472,1359.277,2585.307,1359.277z M2600.56,994.123
						c-13.702,0-27.543,2.779-41.213,8.356c-40.809,16.642-74.082,55.905-91.285,107.717
						c-30.926,93.133,0.09,197.844,69.139,233.417c28.386,14.621,59.274,15.869,89.328,3.61
						c40.809-16.642,74.083-55.905,91.285-107.717c30.927-93.133-0.09-197.844-69.139-233.417
						C2633.2,998.118,2616.979,994.123,2600.56,994.123z"/>
				</g>
				<g style="opacity:0.25;">
					<path style="fill:#371A45;" d="M2462.244,1252.611c-8.528-33.556-7.742-69.571,0.539-103.412
						c25.985,74.875,95.09,105.264,160.257,67.737c42.12-24.231,72.884-71.288,85.669-123.66c1.67,4.712,3.121,9.667,4.425,14.753
						c21.673,85.458-16.917,187.104-86.21,227.024C2557.631,1374.973,2483.916,1338.02,2462.244,1252.611z"/>
				</g>
				<g>
					<path style="fill:#371A45;" d="M2587.621,1374.052c-28.411,0-55.393-11.423-78.383-33.257
						c-38.003-36.097-60.495-97.23-60.166-163.537c0.556-111.851,65.422-206.486,144.599-210.961
						c30.634-1.697,59.803,9.712,84.413,33.084c38.003,36.094,60.495,97.23,60.166,163.537
						c-0.556,111.849-65.421,206.486-144.599,210.964C2591.635,1373.994,2589.624,1374.052,2587.621,1374.052z M2599.577,998.762
						c-1.353,0-2.706,0.039-4.063,0.117c-62.284,3.518-113.338,83.611-113.811,178.541c-0.285,57.472,18.409,109.704,50.008,139.716
						c17.917,17.02,38.759,25.4,60.098,24.164c62.284-3.52,113.338-83.616,113.811-178.543
						c0.285-57.475-18.409-109.704-50.008-139.716C2638.831,1007.104,2619.534,998.762,2599.577,998.762z"/>
				</g>
				<g style="opacity:0.5;">
					<path style="fill:#FFFFFF;" d="M2025.721,683.03c0,0-296.672,2.857-469.079,162.01c-0.181,0.167-0.362,0.335-0.543,0.502
						c-36.257,33.527-62.69,76.099-76.853,123.035c-18.729,62.07-22.424,107.516-24.112,147.641
						c-5.077,122.034,15.695,180.07,15.695,180.07c-67.706-67.07-104.325-141.729-101.118-243.413
						c0.343-10.023,1.072-20.348,2.16-30.923c0.242-2.438,0.537-4.848,0.871-7.274c-0.053-0.025-0.026-0.078,0.04-0.143
						c3.73-21.273,9.701-49.049,19.089-79.834c28.257-92.867,87.332-213.182,208.957-265.549
						C1828.245,571.232,2036.444,670.661,2025.721,683.03z"/>
				</g>
				<g style="opacity:0.5;">
					
						<ellipse transform="matrix(0.9732 -0.23 0.23 0.9732 -168.2152 540.3773)" style="fill:#FFFFFF;" cx="2233.354" cy="991.596" rx="87.299" ry="100.281"/>
				</g>
				<g style="opacity:0.5;">
					
						<ellipse transform="matrix(0.9476 -0.3195 0.3195 0.9476 -254.3946 787.7075)" style="fill:#FFFFFF;" cx="2273.757" cy="1169.255" rx="36.036" ry="41.424"/>
				</g>
			</g>
		</g>
	</g>
</g>
</svg>
