<?xml version="1.0" encoding="utf-8"?>
<!-- Generator: Adobe Illustrator 27.5.0, SVG Export Plug-In . SVG Version: 6.00 Build 0)  -->
<svg version="1.1" id="Layer_1" xmlns="http://www.w3.org/2000/svg" xmlns:xlink="http://www.w3.org/1999/xlink" x="0px" y="0px"
	 viewBox="0 0 4000 4000" style="enable-background:new 0 0 4000 4000;" xml:space="preserve">
<g>
	
	<g>
		<g>
			<g>
				<path style="fill:#FFFFFF;" d="M2429.36,2985.734l-989.42,78.462c-21.228,1.683-39.974-14.308-41.658-35.536l-82.807-1044.214
					c-1.683-21.228,14.308-39.974,35.536-41.658l989.42-78.462c21.229-1.683,39.974,14.308,41.658,35.536l82.807,1044.214
					C2466.58,2965.304,2450.588,2984.05,2429.36,2985.734z"/>
			</g>
			<g>
				<path style="fill:#371A45;" d="M1578.873,3066.586c-107.107,0-198.201-82.637-206.812-191.206l-58.32-735.439
					c-9.05-114.116,76.428-214.324,190.549-223.374l680.645-53.975c55.085-4.377,108.699,13.103,151.001,49.189
					c42.305,36.089,68.008,86.294,72.373,141.362l58.32,735.435c9.05,114.121-76.428,214.326-190.549,223.379l-680.642,53.975
					C1589.886,3066.371,1584.349,3066.586,1578.873,3066.586z M2201.48,1889.977c-4.761,0-9.534,0.188-14.329,0.569l-680.645,53.975
					c-98.706,7.827-172.639,94.497-164.812,193.203l58.32,735.439c7.83,98.701,94.497,172.72,193.206,164.81l680.642-53.975
					c98.706-7.827,172.639-94.497,164.812-193.203l-58.32-735.435c-3.774-47.603-26.013-91.016-62.62-122.244
					C2284.815,1905.033,2243.988,1889.977,2201.48,1889.977z M2274.971,2997.978h0.049H2274.971z"/>
			</g>
			<g>
				<g>
					<path style="fill:#FFFFFF;" d="M2774.317,1542.147c1.334,160.338,157.803,181.752,202.353,181.279
						c92.916-1.002,142.331-76.874,142.331-76.874l-49.167-110.216l-19.761-58.053l-35.046-20.073
						c-17.077-60.825-65.928-136.653-107.15-123.473C2907.877,1334.736,2773.158,1403.94,2774.317,1542.147z"/>
				</g>
				<g>
					<path style="fill:#CADBE8;" d="M3143.444,1600.567c-10.984,47.309-82.918,75.845-212.714,29.322
						c-45.72-16.387-76.758-58.239-65.774-105.549c10.983-47.309,58.239-76.757,105.549-65.774
						C3017.814,1469.55,3154.428,1553.257,3143.444,1600.567z"/>
				</g>
				<g>
					<path style="fill:#FFFFFF;" d="M3174.282,1446.372c-43.188,27.024-79.867,45.818-79.867,45.818l-121.649,77.764l-28.726-177.4
						c0,0,7.201-32.784,19.796-75.467c24.859-84.532,70.693-207.845,122.88-192.27c93.856,28.026-27.38,264.19-27.38,264.19
						s199.078-167.388,246.607-95.68C3333.752,1335.286,3245.224,1401.942,3174.282,1446.372z"/>
				</g>
				<g>
					<path style="fill:#CADBE8;" d="M3174.282,1446.372c-43.188,27.024-79.867,45.818-79.867,45.818l-121.649,77.764l-28.726-177.4
						c0,0,7.201-32.784,19.796-75.467c20.841,26.094,59.947,73.774,71.538,99.456
						C3055.337,1460.776,3137.569,1430.02,3174.282,1446.372z"/>
				</g>
				<g>
					<path style="fill:#371A45;" d="M2972.757,1583.937c-1.938,0-3.882-0.403-5.703-1.218c-4.294-1.919-7.332-5.872-8.083-10.515
						l-28.713-177.436c-0.281-1.738-0.232-3.516,0.149-5.237c5.208-23.643,52.871-232.166,121.482-272.537
						c12.649-7.441,26.077-9.37,38.826-5.557c17.71,5.288,30.962,17.207,38.325,34.47c21.27,49.868-8.765,139.277-32.976,196.863
						c50.962-37.107,131.821-87.983,183.494-80.491c16.316,2.351,29.47,10.427,38.035,23.352c7.449,11.238,9.431,24.641,5.735,38.76
						c-19.265,73.611-198.545,167.881-221.938,179.907l-121.106,77.439C2977.999,1583.198,2975.384,1583.937,2972.757,1583.937z
						 M2958.258,1392.951l24.89,153.801l103.75-66.34c0.374-0.239,0.759-0.461,1.155-0.664
						c53.245-27.297,194.456-109.692,208.254-162.432c2.227-8.508-0.073-13.352-1.997-16.255c-4.216-6.362-10.171-9.9-18.733-11.135
						c-53.628-7.727-167.803,76.631-207.268,109.792c-5.09,4.28-12.49,4.375-17.69,0.227c-5.2-4.143-6.755-11.379-3.721-17.295
						c23.201-45.222,78.572-173.941,56.448-225.791c-4.17-9.775-10.725-15.703-20.625-18.66c-3.357-1.003-8.74-1.802-16.665,2.864
						C3017.469,1169.65,2972.386,1330.058,2958.258,1392.951z"/>
				</g>
				<g>
					<path style="fill:#FFFFFF;" d="M3141.059,1633.194c-32.126,32.504-135.267,27.22-165.402-9.816
						c-25.633-31.531,12.771-55.204,23.493-60.999c1.672-0.932,2.687-1.379,2.687-1.379s-35.342-20.494-34.553-54.084
						c0.049-2.174,0.249-4.403,0.65-6.722c6.25-37.51,112.389-46.505,155.543-28.886c32.261,13.179,41.876,29.795,41.639,45.124
						c-0.241,16.33-11.659,31.202-18.777,38.926c-3.275,3.518-5.607,5.526-5.607,5.526S3166.807,1607.174,3141.059,1633.194z"/>
				</g>
				<g>
					<path style="fill:#CADBE8;" d="M3146.339,1555.359c-29.622,7.415-88.055,18.155-147.19,7.02
						c1.672-0.932,2.687-1.379,2.687-1.379s-35.342-20.494-34.553-54.084c33.328,15.839,126.929,53,197.833,9.517
						C3164.875,1532.762,3153.457,1547.635,3146.339,1555.359z"/>
				</g>
				<g>
					<path style="fill:#CADBE8;" d="M3141.059,1633.194c-32.126,32.504-135.267,27.22-165.402-9.816
						c-12.608-15.49-9.728-29.068-2.281-39.582c1.253,2.248,2.809,4.567,4.719,6.922c30.092,37.027,133.234,42.311,165.349,9.849
						c3.331-3.369,5.828-7.067,7.558-10.99C3153.816,1603.931,3153.26,1620.825,3141.059,1633.194z"/>
				</g>
				<g>
					<path style="fill:#371A45;" d="M3068.792,1667.209c-3.386,0-6.819-0.083-10.298-0.254
						c-41.418-2.012-76.016-15.339-92.546-35.652c-12.402-15.244-12.542-29.17-10.471-38.169
						c3.372-14.668,14.48-25.906,24.341-33.303c-13.12-12.222-28.933-33.357-24.236-61.663c1.387-8.369,6.782-20.435,24.607-30.391
						c38.167-21.323,113.303-22.263,148.042-8.081l0,0c29.075,11.87,45.505,28.247,48.833,48.677
						c3.833,23.513-11.65,44.624-21.199,55.1c7.217,16.729,18.762,53.64-5.894,78.557
						C3134.122,1658.046,3104.241,1667.209,3068.792,1667.209z M3066.302,1475.16c-27.119,0-56.218,4.634-73.889,14.504
						c-5.032,2.81-11.216,7.28-12.1,12.605c-4.753,28.657,27.48,47.695,27.808,47.883c4.043,2.344,6.448,6.738,6.238,11.406
						c-0.208,4.668-2.996,8.833-7.231,10.806c-6.145,2.898-24.402,14.004-27.227,26.426c-0.437,1.921-1.765,7.766,5.493,16.687
						c11.75,14.438,40.92,24.815,74.319,26.438c31.897,1.538,60.374-5.325,72.437-17.52c18.743-18.94-2.151-56.985-2.366-57.366
						c-2.9-5.2-1.758-11.75,2.754-15.635c6.362-5.537,22.368-23.391,19.773-39.048c-2.312-13.955-19.524-23.713-33.557-29.443l0,0
						C3106.322,1477.829,3086.881,1475.16,3066.302,1475.16z"/>
				</g>
				<g>
					<path style="fill:#371A45;" d="M3069.615,1580.847c-21.406,0-45.757-2.461-70.732-9.827c-5.535-1.631-8.696-7.441-7.065-12.974
						c1.631-5.537,7.439-8.703,12.974-7.065c67.703,19.961,132.144,0.151,132.788-0.049c5.515-1.741,11.37,1.326,13.101,6.826
						c1.733,5.503-1.323,11.37-6.826,13.101C3141.951,1571.457,3111.409,1580.847,3069.615,1580.847z"/>
				</g>
				<g>
					<path style="fill:#FFFFFF;" d="M2907.882,1334.753c54.721-17.502,122.81,121.688,112.363,174.635
						c-7.975,40.418-63.246,62.851-108.134-1.505C2866.632,1442.679,2821.949,1362.238,2907.882,1334.753z"/>
				</g>
				<g>
					<path style="fill:#FFFFFF;" d="M3119.003,1646.574c0,0-49.427,75.843-142.311,76.848
						c-44.564,0.482-201.038-20.929-202.378-181.286c-1.155-138.195,133.568-207.382,133.568-207.382
						c54.721-17.502,122.81,121.688,112.363,174.635c-7.975,40.418-72.863,49.323-106.406-32.843c0,0,11.421,70.212-54.892,100.912
						l114.631,106.942l104.603,3.699L3119.003,1646.574z"/>
				</g>
				<g>
					<path style="fill:#FFFFFF;" d="M2892.225,1552.803l-2.284-2.123c2.347-1.094,4.513-2.184,6.611-3.381
						C2895.218,1549.128,2893.786,1550.981,2892.225,1552.803z"/>
				</g>
				<g>
					<path style="fill:#CADBE8;" d="M2918.677,1465.136c-1.023-27.547,58.09,55.702,100.749,47.741
						c-9.417,32.133-56.695,41.093-90.44-7.843C2931.281,1483.583,2918.677,1465.136,2918.677,1465.136z"/>
				</g>
				<g>
					<path style="fill:#CADBE8;" d="M3060.549,1687.465l17.649,0.638c-23.811,17.867-57.887,34.853-101.51,35.331
						c-44.581,0.483-201.048-20.959-202.376-181.302c-0.788-94.037,61.38-156.162,101.173-186.204
						c-34.737,34.538-70.794,87.705-70.198,159.44c1.326,160.342,157.793,181.784,202.375,181.302
						C3027.242,1696.437,3044.896,1692.934,3060.549,1687.465z"/>
				</g>
				<g>
					<path style="fill:#FFFFFF;" d="M3118.958,1646.634c-0.492,0.75-4.385,6.538-11.594,14.65l-2.711-0.083L3118.958,1646.634z"/>
				</g>
				<g>
					<path style="fill:#FFFFFF;" d="M3109.172,1661.339c-1.763,1.32-3.58,2.673-5.472,3.964c1.278-1.387,2.502-2.742,3.664-4.02
						L3109.172,1661.339z"/>
				</g>
				<g>
					<path style="fill:#371A45;" d="M2811.839,1661.239c-15.715-8.169-27.438-22.149-35.314-37.685
						c-8.026-15.565-12.718-32.664-14.693-49.742c-3.569-33.907-1.428-68.807,9.45-101.423
						c5.348-16.263,12.604-31.831,21.318-46.414c8.765-14.561,19.012-28.097,30.216-40.657
						c11.248-12.526,23.504-24.046,36.559-34.528c6.523-5.251,13.236-10.257,20.173-14.986c7.069-4.769,13.792-9.096,21.954-13.474
						c0.583-0.313,1.182-0.57,1.79-0.771l0.337-0.107c10.922-3.548,22.898-2.261,32.294,1.366
						c9.562,3.603,17.343,8.979,24.229,14.731c6.912,5.777,12.776,12.155,18.225,18.723c5.472,6.562,10.354,13.414,14.88,20.43
						c9.103,14.011,16.669,28.732,23.231,43.91c6.421,15.246,11.822,30.952,15.382,47.558c1.72,8.335,3.028,16.875,3.32,25.93
						c0.132,4.531,0.041,9.181-0.662,14.108l-0.549,3.689c-0.297,1.269-0.694,2.571-1.057,3.852
						c-0.851,2.544-1.318,5.188-2.623,7.595c-4.15,10.078-12.44,18.459-21.938,23.578c-9.545,5.082-20.565,7.295-30.729,6.045
						c-2.623-0.025-5.055-0.634-7.514-1.19c-2.417-0.631-5.01-0.962-7.253-1.926c-4.54-1.83-9.257-3.491-13.197-6.137
						c-2.043-1.229-4.127-2.429-6.108-3.726l-5.446-4.359c-3.795-2.803-6.82-6.153-9.938-9.447
						c-12.229-13.359-20.555-28.754-27.263-44.357l26.715-7.52c0.518,3.711,0.679,6.298,0.813,9.332
						c0.128,2.92,0.13,5.82,0.026,8.703c-0.145,5.777-0.806,11.516-1.702,17.237c-2.044,11.395-5.46,22.715-10.532,33.523
						c-2.328,5.511-5.847,10.474-9.346,15.33c-1.968,2.275-4.06,4.444-6.095,6.639c-2.017,2.228-4.572,3.861-6.857,5.753
						c-9.426,7.289-21.05,11.273-33.028,10.861c-2.857-0.098-5.094-2.494-4.995-5.35c0.03-0.862,0.269-1.667,0.666-2.369
						l0.418-0.729c2.963-5.188,6.438-8.648,9.376-12.509c2.911-3.855,6.085-6.99,8.723-10.529
						c5.735-6.587,10.709-13.32,15.147-20.707c4.5-7.338,7.597-15.766,8.99-24.613c0.677-4.425,1.212-8.896,1.317-13.389
						c0.084-2.25,0.084-4.482-0.015-6.693c-0.066-2.094-0.297-4.632-0.475-6.007l-0.024-0.184
						c-0.994-7.667,4.416-14.688,12.082-15.682c6.341-0.822,12.243,2.752,14.656,8.345c5.743,13.335,12.768,25.997,21.909,35.948
						c9.031,9.801,20.384,17.107,31.439,17.93c5.534,0.799,10.689-0.598,14.981-2.808c4.212-2.35,7.878-5.709,9.685-10.366
						c0.691-1.02,0.719-2.414,1.188-3.572l0.586-1.83l0.297-2.167c0.429-2.878,0.521-6.156,0.414-9.501
						c-0.211-6.722-1.254-13.844-2.727-20.954c-6.306-28.57-18.74-57.083-34.731-82.064c-4.023-6.242-8.322-12.264-12.964-17.818
						c-4.611-5.568-9.498-10.845-14.719-15.179c-5.178-4.36-10.676-7.933-15.912-9.878c-5.284-1.956-9.858-2.236-14.079-0.953
						l2.125-0.878c-5.964,3.198-12.781,7.489-18.976,11.703c-6.306,4.297-12.449,8.879-18.407,13.677
						c-11.934,9.579-23.108,20.094-33.271,31.413c-20.324,22.62-36.533,48.735-45.797,77.16
						c-9.367,28.272-11.923,58.958-6.629,88.481c2.538,14.645,6.243,28.772,11.161,42.549c5.027,13.809,10.892,27.07,16.443,42.88
						l0.047,0.133c0.91,2.594-0.454,5.436-3.048,6.346C2814.44,1661.991,2813.013,1661.844,2811.839,1661.239z"/>
				</g>
				<g>
					<path style="fill:#371A45;" d="M3129.505,1653.418c-2.497,3.653-4.63,6.432-7.057,9.414c-2.35,2.94-4.82,5.732-7.314,8.498
						c-2.48,2.781-5.141,5.369-7.71,8.057l-8.127,7.615c-11.08,9.886-23.308,18.539-36.375,25.788
						c-13.138,6.999-26.711,13.817-41.35,17.689c-14.601,3.802-30.427,3.244-44.836-2.879c-2.313-0.983-3.392-3.656-2.409-5.969
						c0.413-0.971,1.123-1.724,1.979-2.199l0.339-0.188c13.463-7.465,25.709-10.373,37.984-14.565
						c6.247-1.491,12.341-3.574,18.557-5.418c5.959-2.525,11.958-5.025,17.548-8.381c11.365-6.301,22.118-13.879,31.901-22.612
						l7.173-6.721c2.25-2.374,4.615-4.654,6.783-7.092c2.185-2.427,4.349-4.866,6.363-7.39c2.001-2.424,4.087-5.227,5.544-7.335
						l0.353-0.51c3.936-5.692,11.741-7.116,17.433-3.18C3131.96,1639.962,3133.391,1647.731,3129.505,1653.418z"/>
				</g>
			</g>
			<g>
				<g>
					<path style="fill:#FFFFFF;" d="M1966.338,3145.263c41.334,86.771,9.534,253.428,34.94,368.024
						c12.563,56.768,61.02,96.712,116.543,96.712h371.501c40.829,0,75.377-32.649,78.405-75.005
						c0.112-0.941,0.168-1.941,0.225-2.941c3.533-92.3-67.413-148.892-175.375-122.067c0-124.479,20.807-235.78,18.059-319.903
						c-0.168-7.295-0.617-14.413-1.234-21.296L1966.338,3145.263z"/>
				</g>
				<g>
					<path style="fill:#CADBE8;" d="M1966.338,3145.263c41.334,86.771,9.534,253.428,34.94,368.024
						c12.563,56.768,61.02,96.712,116.543,96.712h371.501c40.829,0,75.377-32.649,78.405-75.005
						c-13.965,10.707-29.948,18.766-46.438,24.237c-31.744,10.53-65.506,12.412-98.82,12.883
						c-80.761,1.177-161.635-5.412-241.274-19.648c-18.508-3.294-37.744-7.353-52.551-19.472
						c-21.648-17.707-28.939-48.297-32.921-76.77c-8.693-62.534-7.964-126.479,2.299-188.777
						c2.075-12.883,4.767-26.061,11.553-37.061c16.152-26.178,49.522-31.885,78.742-37.767
						c80.144-16.118,156.755-51.474,222.317-102.536c-0.168-7.295-0.617-14.413-1.234-21.296L1966.338,3145.263z"/>
				</g>
				<g>
					<path style="fill:#371A45;" d="M2489.324,3624.36h-371.479c-62.827,0-116.538-44.395-130.615-107.959
						c-11.47-51.792-11.599-113.315-11.726-172.813c-0.159-75.273-0.307-146.372-22.126-192.148
						c-1.936-4.058-1.858-8.784,0.208-12.778c2.065-3.989,5.881-6.782,10.313-7.549l443.064-76.475
						c3.94-0.693,8.01,0.317,11.191,2.764s5.193,6.108,5.552,10.103c4.214,46.953-0.728,101.724-6.45,165.146
						c-4.38,48.56-9.29,102.988-10.178,159.6c51.255-8.877,96.453,0.313,128.691,26.514c31.816,25.864,48.342,66.279,46.536,113.809
						C2580.343,3584.042,2539.5,3624.36,2489.324,3624.36z M1986.378,3156.376c17.558,50.229,17.698,116.948,17.847,187.148
						c0.122,57.969,0.249,117.91,11.047,166.665c11.14,50.313,53.32,85.449,102.573,85.449h371.479
						c34.673,0,62.908-28.184,64.277-64.16c1.458-38.286-11.311-70.4-35.95-90.43c-28.777-23.394-71.963-29.482-121.611-17.129
						c-4.285,1.06-8.826,0.098-12.31-2.622c-3.481-2.72-5.515-6.895-5.515-11.313c0-64.253,5.544-125.703,10.435-179.917
						c4.958-54.946,9.316-103.257,7.48-144.419L1986.378,3156.376z"/>
				</g>
				<g>
					<path style="fill:#371A45;" d="M2410.787,3420.753c-7.95,2.102-15.979,3.521-23.993,5.091
						c-8.013,1.545-16.143,2.8-24.245,4.485c-8.075,1.752-16.072,3.939-24.197,6.288c-8.036,2.526-16.122,5.365-24.293,8.666
						c12.295-12.051,26.73-22.34,42.218-30.908c15.519-8.51,31.923-15.801,48.742-21.757c7.477-2.648,15.684,1.267,18.331,8.744
						c2.648,7.476-1.267,15.684-8.744,18.331c-0.363,0.128-0.728,0.242-1.094,0.34L2410.787,3420.753z"/>
				</g>
				<g>
					<path style="fill:#371A45;" d="M2152.386,3283.676c-52.212,0-108.811-7.412-169.041-25.723
						c-7.588-2.31-11.868-10.327-9.561-17.915c2.305-7.588,10.325-11.855,17.915-9.565c174.954,53.184,317.815,9.624,406.855-36.279
						c7.051-3.633,15.71-0.859,19.343,6.182c3.633,7.051,0.867,15.713-6.184,19.346
						C2348.614,3252.255,2259.827,3283.676,2152.386,3283.676z"/>
				</g>
			</g>
			<g>
				<g>
					<path style="fill:#FFFFFF;" d="M1889.461,3166.935c-41.334,82.724-9.534,241.61-34.94,350.862
						c-12.563,54.121-61.02,92.202-116.543,92.202h-371.501c-40.829,0-75.377-31.127-78.406-71.507
						c-0.112-0.897-0.168-1.851-0.224-2.804c-3.533-87.996,67.413-141.949,175.375-116.375c0-118.674-20.807-224.785-18.059-304.986
						c0.168-6.955,0.617-13.741,1.234-20.302L1889.461,3166.935z"/>
				</g>
				<g>
					<path style="fill:#CADBE8;" d="M1889.461,3166.935c-41.334,82.724-9.534,241.61-34.94,350.862
						c-12.563,54.121-61.02,92.202-116.543,92.202h-371.501c-40.829,0-75.377-31.127-78.406-71.507
						c13.965,10.208,29.949,17.891,46.438,23.107c31.744,10.039,65.506,11.834,98.82,12.282
						c80.761,1.122,161.634-5.16,241.274-18.732c18.508-3.141,37.745-7.01,52.551-18.564c21.648-16.881,28.939-46.045,32.921-73.19
						c8.693-59.617,7.964-120.581-2.299-179.974c-2.075-12.282-4.767-24.845-11.553-35.333
						c-16.152-24.958-49.522-30.397-78.742-36.006c-80.144-15.367-156.755-49.074-222.317-97.755
						c0.168-6.955,0.617-13.741,1.234-20.302L1889.461,3166.935z"/>
				</g>
				<g>
					<path style="fill:#371A45;" d="M1737.955,3624.023h-371.479c-49.983,0-90.674-38.569-92.637-87.803
						c-1.763-44.097,13.833-82.026,43.914-106.802c32.363-26.65,78.518-36.123,131.301-27.275
						c-0.896-53.838-5.796-105.61-10.168-151.807c-5.725-60.513-10.671-112.773-6.45-157.622c0.364-3.872,2.319-7.417,5.398-9.79
						c3.076-2.373,7.005-3.369,10.837-2.729l443.066,72.905c4.397,0.723,8.186,3.491,10.212,7.456
						c2.026,3.97,2.046,8.662,0.054,12.646c-21.738,43.477-21.89,111.157-22.048,182.813c-0.127,56.777-0.256,115.483-11.75,164.966
						C1854.112,3581.65,1800.55,3624.023,1737.955,3624.023z M1411.756,3426.952c-30.598,0-56.802,8.154-76.177,24.111
						c-23.484,19.341-35.147,48.403-33.723,84.038c1.362,34.136,29.746,60.874,64.619,60.874h371.479
						c49.48,0,91.809-33.447,102.935-81.343c10.774-46.377,10.901-103.467,11.023-158.682
						c0.149-66.714,0.288-130.137,17.664-178.081l-410.261-67.505c-1.804,39.121,2.544,85.078,7.488,137.329
						c4.892,51.709,10.439,110.317,10.439,171.621c0,4.287-1.963,8.34-5.325,11.001c-3.364,2.651-7.754,3.633-11.931,2.642
						C1443.035,3428.94,1426.859,3426.952,1411.756,3426.952z"/>
				</g>
				<g>
					<path style="fill:#371A45;" d="M1450.584,3402.406c16.723,5.658,33.168,12.353,48.674,20.645
						c15.493,8.275,30.018,18.207,42.48,29.914c-8.094-3.22-16.137-5.968-24.151-8.387c-8.087-2.267-16.079-4.336-24.141-5.987
						c-4.033-0.82-8.093-1.489-12.135-2.151c-4.008-0.774-8.033-1.456-12.068-2.066c-8.045-1.326-16.062-2.649-24.039-4.446
						l-2.214-0.499c-7.572-1.706-12.327-9.227-10.621-16.799c1.706-7.572,9.227-12.327,16.799-10.621
						C1449.647,3402.116,1450.13,3402.253,1450.584,3402.406z"/>
				</g>
				<g>
					<path style="fill:#371A45;" d="M1703.423,3299.218c-107.297,0-195.923-29.907-258.945-60.884
						c-6.951-3.418-9.814-11.816-6.399-18.77c3.415-6.943,11.819-9.805,18.767-6.396c89.187,43.843,232.285,85.425,407.524,34.634
						c7.429-2.153,15.215,2.119,17.371,9.565c2.156,7.437-2.126,15.21-9.563,17.368
						C1812.071,3292.157,1755.535,3299.218,1703.423,3299.218z"/>
				</g>
			</g>
			<g>
				<path style="fill:#66707F;" d="M1160.976,2437.031c72.3-111.357,195.685-285.218,335.895-380.561l139.601,100.586
					l-145.209,538.773l-213.12-84.126L1160.976,2437.031z"/>
			</g>
			<g>
				<path style="fill:#4E5B6B;" d="M1359.021,2471.294c18.241-41.575,57.625-69.015,90.316-100.519
					c19.918-19.195,37.74-40.432,55.519-61.625c-15.896,74.532-33.387,148.723-52.457,222.507
					c-14.744-2.595-28.689-9.564-39.615-19.798c-7.927-7.425-14.268-16.486-22.678-23.36s-19.986-11.402-30.166-7.613"/>
			</g>
			<g>
				<path style="fill:#371A45;" d="M1491.263,2709.853c-1.743,0-3.491-0.327-5.149-0.981l-213.12-84.126
					c-2.644-1.045-4.91-2.871-6.494-5.229l-117.166-174.673c-3.127-4.663-3.174-10.742-0.117-15.449
					c118.391-182.344,232.705-311.714,339.771-384.521c4.871-3.306,11.299-3.223,16.079,0.22l139.602,100.586
					c4.734,3.413,6.86,9.395,5.342,15.024l-145.21,538.774c-1.038,3.857-3.672,7.085-7.241,8.882
					C1495.584,2709.35,1493.426,2709.853,1491.263,2709.853z M1287.354,2600.263l194.456,76.763l138.604-514.263l-123.704-89.126
					c-100.161,70.615-207.385,192.749-318.923,363.281L1287.354,2600.263z"/>
			</g>
			<g>
				<path style="fill:#66707F;" d="M2781.409,1650.88c0,0,0.151-42.33-36.795-60.004c-37.317-17.851-84,3.516-128.492,37.688
					c-62.333,47.875-229.667,235.085-434.548,266.584c-205.578,31.606,38.809,347.114,38.809,347.114s231.81,25.594,464.254-102.373
					c273.171-150.389,289.669-323.367,289.669-323.367L2781.409,1650.88z"/>
			</g>
			<g>
				<path style="fill:#66707F;" d="M2166.443,2162.352c27.917,46.319,53.923,79.909,53.923,79.909s231.816,25.581,464.268-102.373
					c92.479-50.93,155.565-104.427,198.512-152.948c0.039-0.036,0.039-0.036,0.039-0.036
					c83.912-94.703,91.116-170.366,91.116-170.366l-192.891-165.658c0,0,0.137-42.331-36.813-60.005
					c-37.284-17.838-83.984,3.531-128.473,37.676c-62.334,47.9-229.655,235.098-434.549,266.597
					C2043.065,1916.448,2108.805,2066.659,2166.443,2162.352z"/>
			</g>
			<g>
				<path style="fill:#371A45;" d="M2269.798,2255.815c-31.489,0-50.059-1.914-50.71-1.987l-4.905-0.537l-3.022-3.906
					c-1.079-1.392-26.743-34.658-54.685-81.025c-9.697-16.123-18.474-31.816-26.091-46.655l-0.002-0.01
					c-42.539-82.993-53.396-146.047-32.266-187.412c14.004-27.417,41.489-44.453,81.689-50.637
					c44.841-6.914,91.46-22.178,138.555-45.369c102.021-50.151,187.17-127.087,243.513-178.001
					c19.524-17.642,34.946-31.575,47.161-40.955c56.565-43.413,103.867-56.519,140.586-38.945
					c34.871,16.68,41.748,51.223,43.101,64.876l193.738,166.387l-0.571,6.003c-0.308,3.245-8.545,80.549-93.992,176.982
					l-0.396,0.439c-50.83,57.314-118.54,109.473-201.25,155.02C2521.837,2242.787,2351.927,2255.815,2269.798,2255.815z
					 M2226.529,2231.113c34.431,2.627,244.524,13.052,452.493-101.421c80.564-44.37,146.309-94.99,195.408-150.466l0.398-0.442
					c66.787-75.532,83.315-138.784,86.953-157.654l-192.029-164.917l0.017-5.369c-0.007-1.384-0.557-35.291-30.195-49.468
					c-28.174-13.474-67.322-1.231-116.362,36.409c-11.475,8.813-27.349,23.157-45.73,39.763
					c-57.305,51.782-143.906,130.034-248.845,181.616c-49.214,24.236-98.098,40.215-145.288,47.488
					c-32.847,5.054-53.945,17.556-64.502,38.22c-17.285,33.84-6.133,91.313,32.253,166.206c7.38,14.375,15.898,29.609,25.32,45.278
					C2198.153,2192.416,2218.929,2220.942,2226.529,2231.113z"/>
			</g>
			<g style="opacity:0.3;">
				<path style="fill:#FFFFFF;" d="M2858.532,1819.484c-6.759-22.638-58.944-35.553-115.472-95.438
					c-41.127-43.569-73.109,8.54-21.288,58.696C2776.65,1835.856,2865.291,1842.122,2858.532,1819.484z"/>
			</g>
			<g>
				<path style="fill:#4E5B6B;" d="M2166.443,2162.352c27.917,46.319,53.923,79.909,53.923,79.909s231.816,25.581,464.268-102.373
					c92.479-50.93,155.565-104.427,198.512-152.948c-4.964,3.277-367.441,242.038-641.121,159.046
					C2197.469,2132.467,2175.092,2141.471,2166.443,2162.352z"/>
			</g>
			<g>
				<path style="fill:#371A45;" d="M2273.573,2259.614c-32.312,0-52.148-2.051-54.846-2.349c-4.063-0.449-7.771-2.529-10.276-5.762
					c-6.494-8.384-158.596-206.572-116.836-311.247c13.127-32.905,42.625-53.103,87.666-60.027
					c161.499-24.829,298.467-148.586,380.305-222.529c19.568-17.681,35.027-31.648,47.344-41.106
					c57.664-44.29,106.182-57.52,144.199-39.336c35.225,16.851,43.11,51.108,44.871,66.255l188.142,161.558
					c3.721,3.196,5.659,8.003,5.193,12.886c-0.706,7.388-20.442,182.671-297.417,335.154
					C2523.316,2245.932,2356.954,2259.614,2273.573,2259.614z M2228.319,2227.782c38.269,2.749,244.705,11.377,449.038-101.118
					c230.313-126.794,273.469-270.476,280.625-304.263l-186.406-160.068c-3.333-2.861-5.251-7.034-5.261-11.423
					c-0.015-1.448-0.654-33.235-28.213-46.416c-26.929-12.886-64.873-0.754-112.783,36.04c-11.36,8.728-27.178,23.017-45.493,39.568
					c-84.348,76.208-225.518,203.762-395.955,229.966c-34.202,5.259-55.205,18.792-64.214,41.375
					C2091.16,2022.87,2184.901,2170.204,2228.319,2227.782z"/>
			</g>
			<g>
				<path style="fill:#818891;" d="M3009.107,1735.558c0,0-56.417-18.74-123.623-58.455
					c-89.173-52.697-115.944-115.449-121.76-130.983c-3.299-8.811-55.594,6.021-57.368,50.586
					c-2.61,65.559,138.108,189.812,267.952,219.815C3029.001,1787.728,3009.107,1735.558,3009.107,1735.558z"/>
			</g>
			<g>
				<path style="fill:#818891;" d="M2706.37,1596.718c-2.609,65.535,138.074,189.8,267.931,219.82
					c18.94-9.972,28.929-22.755,33.917-35.171c9.395-23.495,0.88-45.814,0.88-45.814s-56.395-18.75-123.627-58.438
					c-89.147-52.722-115.919-115.461-121.759-130.989c-2.867-7.668-42.856,2.599-54.334,34.773c0,0,0,0-0.001,0.038
					C2707.677,1585.705,2706.598,1590.986,2706.37,1596.718z"/>
			</g>
			<g>
				<path style="fill:#66717C;" d="M2706.37,1596.718c-2.609,65.535,138.074,189.8,267.931,219.82
					c18.94-9.972,28.929-22.755,33.917-35.171c-22.754,2.343-59.226-2.66-115.705-29.759
					c-147.569-70.834-182.287-168.296-183.136-170.671C2707.677,1585.705,2706.598,1590.986,2706.37,1596.718z"/>
			</g>
			<g>
				<path style="fill:#371A45;" d="M2974.307,1831.618c-1.135,0-2.275-0.129-3.398-0.388
					c-131.138-30.3-282.717-157.752-279.636-235.125c1.672-42.041,37.59-63.377,59.839-66.948
					c19.568-3.159,25.427,8.14,26.748,11.672c6.221,16.611,32.915,74.59,115.305,123.279
					c64.868,38.335,120.156,56.943,120.706,57.127c4.297,1.431,7.727,4.714,9.341,8.945c8.53,22.368,10.757,71.992-41.873,99.7
					C2979.156,1831.03,2976.741,1831.618,2974.307,1831.618z M2752.923,1559.616c-4.795,1.375-11.912,4.568-18.342,10.339
					c-8.296,7.444-12.717,16.646-13.142,27.351c-2.024,50.857,122.622,170.928,250.603,203.142
					c27.717-17.117,26.953-41.592,24.634-53.279c-17.898-6.567-64.736-25.081-118.872-57.07
					C2798.06,1642.973,2765.264,1587.807,2752.923,1559.616z"/>
			</g>
			<g style="opacity:0.3;">
				<path style="fill:#FFFFFF;" d="M2661.108,1687.434c11.775,16.945,34.808,17.113,35.644-3.877
					c0.62-15.577-15.428-40.119-29.53-38.247C2653.256,1647.164,2651.903,1674.185,2661.108,1687.434z"/>
			</g>
			<g>
				<path style="fill:#66707F;" d="M2225.966,2095.728c26.174,142.8,106.186,306.683,201.903,476.715
					c53.332,103.861,61.693,241.162,28.042,381.372c13.805,18.507,23.917,38.946,29.598,61.701
					c3.312,13.264-3.202,26.996-15.24,33.476c-100.484,54.097-268.373,94.806-524.724,117.943
					c-268.491,21.058-418.381-41.893-533.166-68.247c-14.594-3.351-25.773-15.418-27.565-30.285
					c-2.76-22.905-0.159-46.202,5.497-69.721c-29.274-202.806,84.126-482.324,128.994-779.57l17.03-72.727l170.852,19.447h190.686
					l229.945-100.951l72.909-50.476L2225.966,2095.728z"/>
			</g>
			<g>
				
					<ellipse transform="matrix(0.9866 -0.1633 0.1633 0.9866 -320.1824 335.1315)" style="fill:#4E5B6B;" cx="1878.192" cy="2114.928" rx="297.797" ry="157.7"/>
			</g>
			<g>
				<path style="fill:#4E5B6B;" d="M1583.382,2822.451c-12.578,29.031-25.173,62.777-11.625,91.35
					c5.877,12.395,16.101,22.078,27.019,30.127c38.729,28.55,87.143,39.298,134.446,45.684
					c119.325,16.111,241.642,8.603,358.229-21.989c33.398-8.763,66.67-19.552,96.33-37.553c22.046-13.38,43.054-32.659,48.131-58.39
					c2.278-11.547,1.146-23.48,0.004-35.203c-3.296-33.859-6.593-67.717-9.889-101.576c15.773,35.772,37.145,69.854,67.383,93.961
					s70.303,37.201,107.678,28.576s69.91-41.742,72.533-80.899c8.586,31.36,10.756,64.546,6.33,96.797
					c-3.309,24.108-10.441,48.031-23.791,68.17c-26.301,39.677-72.577,59.552-117.011,74.658
					c-86.08,29.263-175.379,48.576-265.662,57.456c-116.72,11.48-234.373,5.543-351.35-2.803
					c-107.24-7.652-216.069-17.716-316.25-57.672c-4.445-1.773-9.009-3.698-12.323-7.213c-5.834-6.187-6.428-15.642-6.686-24.24
					c-1.004-33.458-1.055-70.03,19.279-96.228c8.729-11.245,20.548-19.529,32.683-26.731
					c40.193-23.853,86.037-37.632,132.441-39.805"/>
			</g>
			<g>
				<g>
					<path style="fill:#371A45;" d="M2130.677,2336.645c-1.821,0-3.669-0.356-5.454-1.108c-7.131-3.018-10.469-11.245-7.454-18.374
						c2.756-6.519,4.258-14.048,4.465-22.383c0.19-7.739,6.648-13.701,14.363-13.672c7.742,0.195,13.862,6.626,13.669,14.365
						c-0.293,11.865-2.537,22.837-6.667,32.607C2141.336,2333.432,2136.143,2336.645,2130.677,2336.645z"/>
				</g>
				<g>
					<path style="fill:#FFFFFF;" d="M1951.153,2191.071c37.421,10.415,80.302,11.168,113.04,19.434
						c8.781,2.217,17.15,6.01,24.223,11.664c18.881,15.094,15.956,32.171,18.584,49.79c2.209,14.811,14.059,26.458,28.892,28.515
						c2.501,0.347,5.045,0.518,7.629,0.517c12.991-0.005,24.048-9.488,26.489-22.248c11.406-59.62-42.258-111.165-123.515-121.322
						L1951.153,2191.071z"/>
				</g>
				<g>
					<path style="fill:#371A45;" d="M2143.529,2312.206c-3.105,0-6.189-0.21-9.175-0.625c-19.709-2.729-35.52-18.345-38.447-37.969
						c-0.579-3.872-0.901-7.598-1.211-11.196c-1.125-13.018-1.941-22.417-13.284-31.489c-5.466-4.37-12.183-7.578-19.966-9.546
						c-14.399-3.633-31.084-5.781-48.75-8.057c-21.414-2.754-43.555-5.601-64.551-11.445c-4.717-1.313-8.037-5.532-8.203-10.425
						s2.861-9.331,7.478-10.957l95.344-33.652c1.641-0.576,3.394-0.767,5.125-0.552c50.461,6.304,92.722,28.242,115.945,60.181
						c16.277,22.383,22.222,48.101,17.195,74.38C2177.552,2299.013,2161.781,2312.201,2143.529,2312.206z M1993.326,2188.085
						c7.422,1.084,14.873,2.046,22.234,2.993c18.347,2.358,35.679,4.59,51.379,8.555c10.911,2.754,20.493,7.388,28.481,13.774
						c18.855,15.073,20.391,32.817,21.624,47.075c0.281,3.242,0.559,6.523,1.05,9.819c1.47,9.849,9.421,17.686,19.341,19.063
						c1.968,0.269,4.016,0.41,6.089,0.41c7.505-0.005,14.014-5.527,15.469-13.14c3.833-20.029-0.767-39.731-13.301-56.968
						c-19.209-26.416-54.827-44.844-97.991-50.776L1993.326,2188.085z"/>
				</g>
			</g>
			<g>
				<g>
					<path style="fill:#371A45;" d="M1665.13,2463.08c-3.879,0-7.742-1.606-10.515-4.741c-5.125-5.806-4.575-14.663,1.228-19.79
						c5.3-4.683,9.907-10.82,13.696-18.247c3.518-6.904,11.963-9.634,18.862-6.118c6.897,3.521,9.636,11.963,6.118,18.862
						c-5.396,10.576-12.163,19.497-20.112,26.519C1671.741,2461.923,1668.428,2463.08,1665.13,2463.08z"/>
				</g>
				<g>
					<path style="fill:#FFFFFF;" d="M1693.166,2207.896c-31.212,52.02,5.127,132.991-20.771,180.256
						c-8.356,15.25-1.953,34.889,14.404,40.793c0.197,0.071,0.396,0.141,0.596,0.21c12.664,4.364,26.914-1.566,33.246-13.369
						c37.692-70.263-7.758-155.524,28.61-202.282L1693.166,2207.896z"/>
				</g>
				<g>
					<path style="fill:#371A45;" d="M1695.926,2441.791c-4.082,0-8.196-0.654-12.188-2.031l-0.837-0.298
						c-10.427-3.765-18.76-12.021-22.769-22.627c-4.216-11.147-3.33-23.564,2.427-34.072c10.818-19.741,9.106-48.003,7.295-77.925
						c-2.161-35.679-4.395-72.568,13.694-102.715c2.234-3.721,6.428-5.767,10.735-5.391l56.084,5.61
						c4.063,0.405,7.585,2.988,9.194,6.743c1.609,3.75,1.05,8.081-1.455,11.304c-15.291,19.658-13.567,49.004-11.572,82.983
						c2.18,37.124,4.651,79.199-16.008,117.715C1723.57,2434.052,1709.937,2441.791,1695.926,2441.791z M1699.534,2219.804
						c-10.93,23.521-9.082,54.063-7.288,83.677c1.924,31.782,3.914,64.644-10.015,90.063c-2.602,4.751-3.01,10.347-1.116,15.356
						c1.714,4.531,5.083,7.905,9.49,9.492c7.732,2.666,16.379-0.879,20.149-7.91c17.664-32.925,15.488-69.971,13.384-105.796
						c-1.746-29.702-3.411-58.081,6.687-81.753L1699.534,2219.804z"/>
				</g>
			</g>
			<g>
				<path style="fill:#371A45;" d="M1519.305,2219.113c-0.873,66.824-13.348,132.323-27.105,197.084
					c-3.345,16.236-6.823,32.431-10.423,48.585l-10.755,48.47l-22.029,96.647c-14.453,64.365-28.823,128.657-38.102,193.374
					c-2.169,16.179-4.65,32.347-6.043,48.528l-2.472,24.271c-0.592,8.088-0.828,16.171-1.264,24.258
					c-2.04,32.395-0.091,64.507,3.078,96.348l0.073,0.735c0.154,1.548,0.025,3.115-0.318,4.547l-0.003,0.012
					c-3.009,12.589-5.162,25.232-5.909,37.776c-0.369,6.269-0.396,12.51-0.036,18.687l0.35,4.619l0.244,2.297
					c0.078,0.785,0.162,1.583,0.252,1.975c0.297,2.002,0.884,3.951,1.75,5.793c1.723,3.688,4.633,6.891,8.162,9.084
					c1.765,1.098,3.682,1.946,5.682,2.516l4.3,1.085l5.024,1.222c13.452,3.171,26.657,6.726,39.867,10.233
					c26.341,7.153,52.386,14.389,78.537,21.059c26.119,6.745,52.354,12.593,78.695,17.863
					c105.384,20.75,213.604,25.103,320.752,16.949c107.578-9.732,215.326-23.373,320.377-46.956
					c26.167-6.198,52.302-12.589,77.91-20.454c12.908-3.654,25.506-8.097,38.211-12.26c12.521-4.59,25.099-9.062,37.32-14.266
					c6.202-2.424,12.257-5.118,18.258-7.912c6.039-2.726,12.09-5.431,17.906-8.523l8.819-4.483l2.205-1.12l1.057-0.543l0.596-0.365
					c0.809-0.459,1.567-1.007,2.263-1.616c2.837-2.385,4.829-5.75,5.514-9.226c0.349-1.738,0.39-3.495,0.118-5.214
					c-0.106-0.428-0.19-0.848-0.263-1.29l-0.596-2.259l-1.264-4.496c-1.763-5.971-3.925-11.815-6.417-17.521
					c-4.961-11.426-11.387-22.234-18.897-32.351l-0.056-0.077c-2.523-3.45-3.276-7.654-2.425-11.524l0.03-0.132
					c8.155-36.332,13.954-73.146,16.73-110.128c2.789-36.982,2.203-74.105-1.558-110.773
					c-3.864-36.666-12.049-72.707-24.143-107.203c-1.365-4.375-3.211-8.549-4.888-12.794c-1.736-4.209-3.34-8.523-5.178-12.652
					l-5.74-12.205c-0.983-2.04-1.843-4.063-2.924-6.121l-3.417-6.197c-9.114-16.465-18.262-33.063-27.197-49.921
					c-17.865-33.608-35.3-67.475-52.049-101.717c-16.707-34.269-32.361-69.088-47.061-104.339
					c-14.52-35.314-28.435-70.985-39.499-107.663c-10.692-36.73-18.56-74.632-19.388-113.102
					c12.962,36.133,25.12,71.582,38.327,106.82c12.894,35.296,26.729,70.287,42.211,104.623
					c30.828,68.724,65.785,135.697,102.487,201.754l27.857,49.641l3.514,6.221c1.146,2.125,2.193,4.45,3.293,6.666l6.507,13.467
					c2.061,4.509,3.822,9.069,5.744,13.605c1.854,4.552,3.875,9.048,5.398,13.713c13.529,36.884,22.066,75.367,26.307,114.101
					c4.286,38.761,4.116,77.795,0.998,116.409c-3.144,38.634-9.587,76.906-19.063,114.34l-2.395-11.655l0.065,0.089
					c8.684,11.689,16.244,24.381,22.11,37.885c2.944,6.742,5.501,13.665,7.588,20.723l1.495,5.312l0.702,2.667l0.754,3.702
					c0.793,4.992,0.675,10.133-0.31,15.055c-1.956,9.866-7.347,18.789-14.889,25.16c-1.872,1.606-3.888,3.053-6.013,4.298
					l-1.595,0.934l-1.206,0.624l-2.336,1.189l-9.345,4.754c-6.19,3.279-12.54,6.125-18.883,8.99
					c-6.319,2.938-12.675,5.762-19.129,8.29c-12.789,5.438-25.814,10.078-38.805,14.833c-13.108,4.304-26.152,8.89-39.392,12.643
					c-26.35,8.086-53.032,14.615-79.733,20.935c-107.12,24.026-215.524,37.713-324.324,47.565
					c-54.842,4.151-109.791,5.136-164.734,2.447c-54.909-2.724-109.716-9.267-163.67-19.819
					c-26.943-5.386-53.761-11.372-80.259-18.214c-26.503-6.761-52.818-14.073-78.917-21.159
					c-13.049-3.465-26.084-6.972-39.079-10.033l-4.876-1.187c-1.652-0.409-3.025-0.709-5.577-1.414
					c-4.53-1.286-8.882-3.211-12.88-5.704c-7.995-4.977-14.593-12.24-18.656-20.862c-2.034-4.302-3.439-8.92-4.141-13.633
					c-0.218-1.28-0.302-2.172-0.395-3.076l-0.292-2.769l-0.421-5.54c-0.433-7.385-0.394-14.752,0.036-22.043
					c0.872-14.59,3.334-28.83,6.636-42.655l0.003-0.013l-0.245,5.28l-2.798-25.405l-1.385-12.714
					c-0.447-4.238-0.327-8.471-0.496-12.709l-0.601-25.423c-0.2-4.247-0.046-8.462,0.169-12.671l0.522-12.639
					c0.395-8.419,0.6-16.87,1.161-25.265l2.382-25.079c1.232-16.791,4.041-33.276,6.411-49.84
					c10.299-66.088,24.984-130.945,40.784-195.269l24.195-96.239l12.192-48.012c4.089-15.998,8.051-32.013,11.876-48.048
					C1486.225,2347.167,1500.162,2283.019,1519.305,2219.113z"/>
			</g>
			<g>
				<path style="fill:#371A45;" d="M1395.994,2985.865l23.319,10.115l23.603,9.465l23.838,8.917l24.126,8.17
					c32.301,10.565,65.278,19.282,98.719,26.198c33.404,7.17,67.318,12.144,101.447,15.948c34.142,3.717,68.54,5.828,103.072,6.913
					c-34.408,3.167-69.053,4.366-103.746,3.703c-34.702-0.574-69.411-3.455-103.975-8.023
					c-34.524-4.816-68.852-11.72-102.641-20.897l-25.201-7.403l-24.977-8.198l-24.643-9.194l-24.305-10.079
					c-7.153-2.967-10.547-11.17-7.581-18.323c2.967-7.153,11.17-10.547,18.323-7.581c0.047,0.02,0.094,0.039,0.141,0.059
					L1395.994,2985.865z"/>
			</g>
			<g>
				<path style="fill:#371A45;" d="M2464.886,2964.587c-42.126,31.74-90.478,51.862-139.578,64.743
					c-49.256,12.833-99.665,18.562-149.819,19.829c49.818-5.915,99.07-16.305,145.65-33.216
					c46.438-16.884,90.421-40.605,125.795-72.899l0.04-0.037c5.726-5.227,14.605-4.823,19.832,0.903
					c5.227,5.726,4.823,14.605-0.903,19.832C2465.581,2964.038,2465.229,2964.327,2464.886,2964.587z"/>
			</g>
			<g>
				<g>
					
						<ellipse transform="matrix(1 -0.0084 0.0084 1 -15.1873 15.5648)" style="fill:#CADBE8;" cx="1841.41" cy="1811.938" rx="319.056" ry="389.677"/>
				</g>
				<g>
					<g>
						<g>
							<path style="fill:#818891;" d="M1891.984,2207.681c31.949-2.865,159.211-34.915,258.688-107.829
								c88.578-64.925,145.545-135.19,114.312-189.733c-16.594-28.978-48.044-7.559-48.044-7.559s16.38-94.125-85.385-98.436
								c-90.499-3.834-151.609-20.72-116.92,53.297c34.689,74.017,14.107,175.087-58.843,262.792
								C1893.231,2195.428,1889.211,2186.757,1891.984,2207.681z"/>
						</g>
						<g>
							<path style="fill:#818891;" d="M2150.682,2099.862c-99.499,72.893-226.765,104.957-258.7,107.803
								c-2.769-20.897,1.254-12.233,63.818-87.462c20.274-24.393,36.496-49.802,48.633-75.386
								c31.493-66.401,35.261-133.979,10.209-187.411c-34.68-74.012,26.398-57.114,116.905-53.292
								c101.787,4.316,85.399,98.45,85.399,98.45s10.813-7.365,23.111-7.594c8.638-0.179,18.069,3.177,24.94,15.155
								C2296.231,1964.643,2239.266,2034.923,2150.682,2099.862z"/>
						</g>
						<g>
							<path style="fill:#818891;" d="M2150.682,2099.862c-99.499,72.893-226.765,104.957-258.7,107.803
								c-2.015-15.202-0.446-14.759,24.649-42.369c9.418-10.301,22.119-24.574,39.169-45.093
								c20.274-24.393,36.496-49.802,48.633-75.386c31.493-66.401,35.261-133.979,10.209-187.411
								c-34.68-74.012,26.398-57.114,116.905-53.292c101.787,4.316,85.399,98.45,85.399,98.45s10.813-7.365,23.111-7.594
								c7.74-0.181,16.075,2.509,22.642,11.647c0.825,1.07,1.555,2.246,2.298,3.507
								C2296.231,1964.643,2239.266,2034.923,2150.682,2099.862z"/>
						</g>
						<g style="opacity:0.3;">
							<path style="fill:#FFFFFF;" d="M2148.553,2052.063c-11.047,5.846-1.94-8.73,15.099-25.067
								c29.898-28.665,56.651-62.537,65.647-83.283c8.997-20.745,22.181-15.44,17.424,5.053
								C2241.086,1973.056,2191.097,2029.551,2148.553,2052.063z"/>
						</g>
						<g>
							<path style="fill:#66717C;" d="M2150.682,2099.862c-99.499,72.893-226.765,104.957-258.7,107.803
								c-2.015-15.202-0.446-14.759,24.649-42.369c8.076,1.818,20.863,8.342,38.054,3.729
								c118.877-31.895,314.011-146.081,308.013-262.408c0.825,1.07,1.555,2.246,2.298,3.507
								C2296.231,1964.643,2239.266,2034.923,2150.682,2099.862z"/>
						</g>
						<g>
							<path style="fill:#66717C;" d="M2240.057,1894.969c-5.479,35.144-31.747,85.908-115.757,133.424
								c65.99-65.995,64.375-124.354,44.64-105.38c-48.887,46.887-115.848,91.914-164.508,121.803
								c31.493-66.401,35.261-133.979,10.209-187.411c-34.68-74.012,26.398-57.114,116.905-53.292
								c101.787,4.316,85.399,98.45,85.399,98.45S2227.759,1895.198,2240.057,1894.969z"/>
						</g>
						<g>
							<path style="fill:#371A45;" d="M1891.969,2221.703c-6.958,0-12.954-5.156-13.884-12.183
								c-2.654-20.039,2.305-25.439,20.759-45.532c9.685-10.542,24.321-26.475,46.169-52.739
								c68.289-82.104,90.102-177.085,56.926-247.878c-8.757-18.686-17.28-42.368-5.354-59.802
								c14.553-21.279,49.192-18.94,97.126-15.708c12.258,0.828,24.937,1.685,38.438,2.256
								c35.347,1.499,62.019,13.123,79.282,34.553c15.037,18.669,19.431,40.791,20.31,57.092c5.652-1.052,11.941-1.282,18.376,0.208
								c7.832,1.804,18.879,6.943,27.034,21.182c32.026,55.93-8.843,127.859-118.191,208.01
								c-101.558,74.438-232.151,107.476-265.728,110.483C1892.808,2221.684,1892.386,2221.703,1891.969,2221.703z
								 M2048.988,1813.84c-14.71,0-26.353,1.313-29.258,5.562c-0.737,1.077-3.831,7.681,7.6,32.07
								c37.839,80.745,14.558,187.156-60.759,277.707c-22.288,26.797-37.205,43.037-47.075,53.784
								c-2.563,2.788-4.678,5.088-6.411,7.021c48.862-10.43,148.33-42.09,229.299-101.44
								c54.875-40.225,142.195-115.989,110.432-171.458c-3.359-5.869-6.699-7.246-8.918-7.773
								c-7.056-1.668-16.418,3.086-19.141,4.885c-4.661,3.096-10.762,3.137-15.452,0.068c-4.685-3.064-7.139-8.594-6.179-14.111
								c0.049-0.293,5.476-34.47-13.657-58.047c-11.987-14.773-31.67-22.837-58.506-23.974c-13.853-0.589-26.709-1.455-39.141-2.295
								C2077.806,1814.894,2062.164,1813.84,2048.988,1813.84z"/>
						</g>
						<g>
							<path style="fill:#371A45;" d="M2232.921,1906.657c-2.006,4.768-3.926,8.523-6.061,12.592
								c-2.09,3.985-4.291,7.874-6.572,11.702c-4.57,7.648-9.529,15.016-14.846,22.056c-5.344,7.03-11.212,13.643-17.408,19.763
								c-6.289,6.068-13.152,11.439-20.307,15.965c10.823-13.148,17.953-28.151,23.198-43.566
								c2.572-7.742,4.707-15.576,6.409-23.465c0.846-3.944,1.602-7.897,2.223-11.839c0.62-3.842,1.209-8.086,1.402-11.402
								L2232.921,1906.657z"/>
						</g>
					</g>
					<g>
						<g>
							<path style="fill:#818891;" d="M1891.991,2207.68c-31.091,9.341-180.566,27.234-273.608-4.762
								c-128.545-43.82-170.127-208.387-154.551-271.993c8.276-33.794,62.833-41.938,103.411-12.365
								c26.68-58.701,131.554-80.717,117.727,2.694s31.841,171.653,123.804,227.427
								C1887.64,2196.511,1889.218,2186.756,1891.991,2207.68z"/>
						</g>
						<g>
							<path style="fill:#818891;" d="M1891.991,2207.671c-31.077,9.34-180.555,27.241-273.622-4.754
								c-128.516-43.799-170.122-208.386-154.544-271.991c8.272-33.792,62.827-41.922,103.425-12.353
								c26.676-58.736,131.542-80.725,117.705,2.662c-10.186,61.532,11.99,125.733,61.277,177.528
								c17.488,18.417,38.444,35.272,62.555,49.927c20.606,12.479,35.911,21.072,47.377,27.273
								C1888.545,2193.507,1889.942,2192.208,1891.991,2207.671z"/>
						</g>
						<g>
							<path style="fill:#66717C;" d="M1891.991,2207.671c-31.077,9.34-180.555,27.241-273.622-4.754
								c-128.516-43.799-170.122-208.386-154.544-271.991c8.272-33.792,62.827-41.922,103.425-12.353
								c26.676-58.736,131.542-80.725,117.705,2.662c-10.186,61.532,11.99,125.733,61.277,177.528
								c-48.085-14.41-82.422-66.947-114.32-47.904c-33.449,20.045,15.74,84.397,15.74,84.397s-26.792-12.638-58.776-47.992
								c-42.887-47.419-86.167-40.021-50.914,20.292c42.771,73.127,131.458,96.332,275.573,85.926
								c25.068-1.813,37.065-9.516,42.628-17.518C1888.545,2193.507,1889.942,2192.208,1891.991,2207.671z"/>
						</g>
					</g>
					<g>
						<g>
							<path style="fill:#371A45;" d="M1755.279,2235.102c-48.347,0-100.198-4.736-141.455-18.926
								c-132.009-45-181.68-214.807-163.611-288.586c4.128-16.858,16.484-29.824,34.792-36.516
								c23.372-8.542,52.39-5.33,77.319,7.915c23.181-33.525,69.185-54.314,102.935-44.031
								c26.772,8.147,39.312,33.787,33.542,68.586c-13.196,79.609,31.729,161.284,117.244,213.149
								c27.488,16.67,45.476,26.265,57.38,32.612c22.832,12.173,29.722,15.85,32.463,36.533c0.906,6.821-3.274,13.291-9.866,15.269
								C1877.061,2226.806,1819.241,2235.102,1755.279,2235.102z M1513.143,1914.423c-6.978,0-13.313,1.089-18.511,2.988
								c-6.543,2.39-14.831,7.253-17.183,16.848c-14.206,58.017,26.013,214.665,145.457,255.388
								c76.804,26.411,194.988,17.188,245.42,8.755c-2.468-1.353-5.254-2.837-8.096-4.355
								c-12.175-6.494-30.576-16.304-58.726-33.379c-95.523-57.935-145.476-150.552-130.369-241.709
								c3.447-20.784-1.279-33.291-14.043-37.175c-22.344-6.802-63.132,11.877-77.087,42.576c-1.743,3.838-5.122,6.687-9.197,7.759
								c-4.08,1.072-8.418,0.254-11.826-2.229C1543.807,1918.827,1527.178,1914.423,1513.143,1914.423z"/>
						</g>
					</g>
					<g>
						<path style="fill:#371A45;" d="M1621.898,2114.305c-14.918-12.49-27.852-27.484-39.151-43.636
							c-11.254-16.211-20.874-33.772-28.031-52.685c-7.091-18.887-11.799-39.313-11.439-60.777
							c0.247-21.352,6.505-43.834,19.175-62.696l26.301,19.923c-10.885,12.052-18.071,27.562-20.816,44.825
							c-2.814,17.247-1.464,35.809,2.575,53.971c4.061,18.202,10.736,36.134,19.315,53.209
							C1598.467,2083.486,1608.908,2099.848,1621.898,2114.305z"/>
					</g>
				</g>
			</g>
			<g>
				<g>
					<g>
						<g>
							<path style="fill:#FFFFFF;" d="M2417.912,994.125c0,0,175.251,40.719,196.55,69.273
								c39.484,52.936,78.953,390.058,2.907,489.597c-29.776,38.976-278.259,105.16-278.259,105.16L2417.912,994.125z"/>
						</g>
						<g>
							<path style="fill:#CADBE8;" d="M2339.112,1658.164c0,0,248.48-66.2,278.236-105.182
								c29.683-38.832,41.791-113.944,43.091-194.172c-2.453,2.895-81.35,92.005-280.605-40.618
								c-0.104-0.079-0.254-0.152-0.358-0.231L2339.112,1658.164z"/>
						</g>
						<g>
							<path style="fill:#FFFFFF;" d="M1229.254,1807.87c0,0-257.139,2.002-296.161-27.703
								c-38.911-29.579-70.487-98.799-92.998-175.815c-0.052-0.04-0.052-0.04-0.052-0.04
								c-35.19-120.205-48.523-259.49-33.86-296.995c12.963-33.173,171.156-118.898,171.156-118.898l122.854,302.101
								L1229.254,1807.87z"/>
						</g>
						<g>
							<path style="fill:#CADBE8;" d="M1229.254,1807.87c0,0-257.139,2.002-296.161-27.703
								c-38.911-29.579-70.487-98.799-92.998-175.815c3.133,2.142,102.82,67.163,259.815-113.514
								c0.079-0.104,0.204-0.214,0.284-0.318L1229.254,1807.87z"/>
						</g>
						<g>
							<path style="fill:#371A45;" d="M2322.752,1677.023l83.083-700.098l15.251,3.542c42.283,9.824,182.004,44.236,204.612,74.546
								c25.024,33.55,42.859,143.608,47.542,234.988c3.821,74.531,3.091,208.911-44.729,271.506
								c-31.106,40.718-243.525,98.938-285.793,110.198L2322.752,1677.023z M2429.981,1011.41l-74.5,627.769
								c94.946-26.277,232.502-70.818,250.745-94.695c71.055-93.008,32.771-424.739-3.005-472.703
								C2592.659,1057.619,2508.033,1030.431,2429.981,1011.41z"/>
						</g>
						<g>
							<path style="fill:#371A45;" d="M1211.544,1821.945c-67.754,0-250.191-2.651-286.939-30.603
								c-62.695-47.686-99.004-177.068-115.068-249.949c-19.695-89.355-31.658-200.205-16.418-239.185
								c13.769-35.22,139.382-105.42,177.554-126.099l13.767-7.456l265.603,653.062l-20.662,0.164
								C1225.05,1821.913,1218.99,1821.945,1211.544,1821.945z M970.294,1208.305c-70.227,39.023-144.624,87.661-151.057,104.114
								c-21.789,55.728,29.187,385.747,122.346,456.604c23.916,18.191,168.359,24.692,266.873,24.873L970.294,1208.305z"/>
						</g>
					</g>
					<g>
						<polygon style="fill:#D8D8D8;" points="1742.509,1442.643 1742.896,1445.513 1740.88,1444.35 						"/>
					</g>
					<g>
						<polygon style="fill:#D8D8D8;" points="1740.88,1444.35 1739.244,1446.005 1738.857,1443.136 						"/>
					</g>
					<g>
						
							<ellipse transform="matrix(0.7071 -0.7071 0.7071 0.7071 -415.1686 1601.8293)" style="fill:#FFFFFF;" cx="1725.995" cy="1302.068" rx="780.013" ry="780.013"/>
					</g>
					<g>
						<path style="fill:#CADBE8;" d="M2499.022,1197.778c57.587,426.926-241.813,819.691-668.74,877.278
							c-426.926,57.587-819.74-241.807-877.327-668.733c-6.08-45.076-8.192-89.793-6.527-133.73
							c111.804,355.458,466.331,589.511,848.182,538.004s661.646-371.122,675.274-743.499
							C2483.131,1109.023,2492.942,1152.702,2499.022,1197.778z"/>
					</g>
					<g>
						<path style="fill:#371A45;" d="M1725.452,2096.161c-391.096,0.024-732.671-289.883-786.365-687.949
							c-58.528-433.901,246.86-834.524,680.762-893.054c433.921-58.521,834.529,246.865,893.052,680.764
							c28.354,210.19-26.843,418.843-155.422,587.519c-128.579,168.674-315.149,277.183-525.339,305.537
							C1796.307,2093.813,1760.655,2096.161,1725.452,2096.161z M1726.522,536.017c-33.984,0-68.33,2.266-102.922,6.931
							c-418.579,56.462-713.181,442.937-656.724,861.514c51.797,383.984,381.343,663.643,758.596,663.657
							c33.984,0,68.328-2.266,102.917-6.934c418.582-56.46,713.184-442.934,656.724-861.514
							C2433.319,815.685,2103.775,536.017,1726.522,536.017z"/>
					</g>
					<g>
						<path style="fill:#371A45;" d="M1725.452,2096.161c-391.096,0.024-732.671-289.883-786.365-687.949
							c-58.528-433.901,246.86-834.524,680.762-893.054c433.921-58.521,834.529,246.865,893.052,680.764
							c28.354,210.19-26.843,418.843-155.422,587.519c-128.579,168.674-315.149,277.183-525.339,305.537
							C1796.307,2093.813,1760.655,2096.161,1725.452,2096.161z M1726.522,536.017c-33.984,0-68.33,2.266-102.922,6.931
							c-418.579,56.462-713.181,442.937-656.724,861.514c51.797,383.984,381.343,663.643,758.596,663.657
							c33.984,0,68.328-2.266,102.917-6.934c418.582-56.46,713.184-442.934,656.724-861.514
							C2433.319,815.685,2103.775,536.017,1726.522,536.017z"/>
					</g>
					<g>
						<path style="fill:#371A45;" d="M952.657,1213.554c-0.933,0-1.877-0.093-2.825-0.288c-7.207-1.477-12.046-8.271-11.086-15.564
							c46.597-354.075,326.675-634.756,681.099-682.561c354.666-47.835,699.165,148.772,837.805,478.118
							c2.854,6.78-0.017,14.614-6.577,17.942c-6.558,3.333-14.578,1.023-18.367-5.283
							c-161.318-268.633-474.033-414.084-796.648-370.574c-322.419,43.491-585.373,266.433-669.91,567.971
							C964.422,1209.467,958.821,1213.554,952.657,1213.554z M1725.892,536.052c-33.879,0-68.032,2.256-102.297,6.878
							c-275.569,37.173-504.558,220.286-606.572,468.757c125.999-216.599,351.406-368.538,615.286-404.131
							c165.647-22.351,331.609,3.159,479.951,73.755c83.188,39.587,157.864,91.782,221.611,154.402
							C2190.135,648.659,1965.186,536.052,1725.892,536.052z"/>
					</g>
					<g>
						<path style="fill:#371A45;" d="M2498.961,1197.823c9.025,66.907,9.315,133.05,1.696,197.094c0,0-0.071,0.01-0.061,0.08
							c-99.15,277.167-353.878,538.502-683.468,582.96c-329.591,44.458-644.387-140.056-813.43-381.047
							c-0.01-0.071-0.08-0.061-0.08-0.061c-24.385-59.728-41.632-123.583-50.657-190.49c-3.945-29.251-6.218-58.365-6.8-87.206
							c65.363-302.609,341.639-552.45,701.045-600.929c359.475-48.489,692.165,119.354,835.306,393.909
							C2489.512,1140.036,2495.025,1168.643,2498.961,1197.823z"/>
					</g>
					<g style="opacity:0.35;">
						<path style="fill:#111A28;" d="M2498.995,1197.838c9.025,66.908,9.315,133.051,1.696,197.095c0,0-0.071,0.01-0.061,0.08
							c-99.15,277.168-353.88,538.49-683.469,582.948c-329.589,44.457-644.383-140.043-813.429-381.035
							c-0.01-0.071-0.078-0.061-0.078-0.061c-14.513-35.593-26.484-72.609-35.753-110.924
							c199.574,171.339,470.695,279.002,751.255,241.158c357.426-48.212,637.707-320.102,761.473-618.503
							c0.667,1.205,1.322,2.34,1.918,3.554C2489.546,1140.052,2495.06,1168.66,2498.995,1197.838z"/>
					</g>
					<g style="opacity:0.5;">
						<path style="fill:#FFFFFF;" d="M1199.45,1547.894c-53.303,7.19-127.824-198.324-49.409-387.965
							c106.04-256.452,460.886-311.001,474.261-275.22c13.375,35.781-239.577,168.593-328.956,371.7
							C1229.409,1406.248,1252.752,1540.704,1199.45,1547.894z"/>
					</g>
				</g>
				<g style="opacity:0.5;">
					
						<ellipse transform="matrix(0.015 -0.9999 0.9999 0.015 981.6983 3542.4946)" style="fill:#FFFFFF;" cx="2288.855" cy="1272.983" rx="127.793" ry="96.136"/>
				</g>
				<g style="opacity:0.5;">
					
						<ellipse transform="matrix(0.3403 -0.9403 0.9403 0.3403 44.547 3120.9612)" style="fill:#FFFFFF;" cx="2246.473" cy="1528.733" rx="54.706" ry="47.59"/>
				</g>
			</g>
			<g>
				<g>
					<path style="fill:#66707F;" d="M1323.011,2465.883c56.084-5.608,72.909,39.259,106.56,61.693
						c30.768,11.301,60.413,24.918,89.735,39.259c67.301,16.825,112.168,5.608,134.602,72.909
						c-29.667,124.465-89.735,229.945-190.686,286.029c-205.063-57.838-232.663-174.83-309.255-295.518
						c-12.072-19.021-20.335-40.372-22.365-62.81c-4.618-51.053,6.594-100.127,39.983-146.429L1323.011,2465.883z"/>
				</g>
				<g>
					<path style="fill:#4E5B6B;" d="M1611.565,2708.613c-66.596,127.705-237.393,154.196-337.449,50.6
						c-53.847-55.752-82.105-122.614-126.299-190.651c-7.06-10.87-12.787-22.519-16.839-34.677
						c-0.553,10.304-0.422,20.694,0.419,31.172c1.833,22.837,9.559,44.773,21.868,64.097
						c77.127,121.077,104.27,238.606,309.956,296.62c100.952-56.084,161.019-161.564,190.686-286.029
						c-2.114-6.342-4.428-11.984-6.941-17.021C1637.305,2652.975,1625.563,2681.771,1611.565,2708.613z"/>
				</g>
				<g>
					<path style="fill:#371A45;" d="M1323.011,2465.884c10.41-2.919,21.808-3.846,33.062-1.562
						c11.271,2.155,22.02,7.49,31.162,14.161c9.319,6.55,17.161,14.369,24.924,21.484c7.636,7.244,15.134,14.017,23.165,18.979
						l-2.177-1.105c21.022,7.088,41.77,14.945,61.908,23.937l14.814,6.55c4.673,1.974,9.442,3.721,14.275,5.26
						c4.835,1.534,9.737,2.856,14.688,3.955c4.995,1.16,9.767,2.029,15.219,2.892c10.615,1.782,21.456,3.322,32.699,5.538
						c11.192,2.246,23.037,5.216,34.556,11.095c11.527,5.747,22.081,14.823,29.499,25.29c7.529,10.456,12.453,21.76,16.402,32.953
						c0.879,2.492,0.966,5.072,0.392,7.463l-0.055,0.222c-13.917,58.427-34.877,115.955-66.942,167.952
						c-16.02,25.935-34.864,50.36-56.672,72.071c-21.777,21.717-46.544,40.643-73.516,55.703c-3.526,1.969-7.513,2.334-11.12,1.334
						l-0.095-0.026c-54.538-15.283-108.374-38.435-154.44-74.053c-22.922-17.876-43.164-38.998-61.004-61.564
						c-4.288-5.754-8.938-11.312-12.914-17.236l-12.079-17.691c-7.553-12.006-15.075-24.024-22.032-36.19
						c-14.087-24.268-27.413-48.551-41.29-72.186l-10.635-17.51c-3.355-5.563-7.714-12.332-11.054-19.018
						c-6.944-13.474-12.184-28.059-14.935-43.306c-0.705-3.805-1.214-7.656-1.592-11.524l-0.786-11.049
						c-0.29-7.357-0.38-14.734-0.057-22.123c0.634-14.772,2.679-29.556,6.229-43.988c7.027-28.922,20.331-56.115,37.6-79.778
						l0.034-0.047c4.565-6.255,13.336-7.625,19.591-3.06c6.226,4.544,7.609,13.26,3.12,19.509
						c-15.291,21.273-26.621,45.009-32.555,70.125c-2.995,12.544-4.693,25.4-5.165,38.362c-0.243,6.482-0.114,12.991,0.179,19.502
						l0.756,9.714c0.321,3.036,0.735,6.07,1.319,9.085c2.26,12.069,6.551,23.889,12.394,35.036
						c2.922,5.716,6.138,10.604,10.002,16.891l11.101,18.008c14.37,24.167,27.688,48.608,41.521,72.33
						c6.833,11.934,14.058,23.436,21.288,34.929l11.415,16.689c3.757,5.607,8.064,10.693,12.062,16.071
						c16.588,20.922,35.022,40.13,55.939,56.426c42.06,32.325,91.954,54.198,144.03,69.132l-11.213,1.308
						c24.622-13.61,47.258-30.733,67.34-50.579c20.103-19.837,37.665-42.344,52.745-66.515
						c30.192-48.439,50.529-103.091,64.156-159.237l0.337,7.684c-3.234-9.38-7.15-18.261-12.346-25.572
						c-5.187-7.34-11.589-12.924-19.529-17.037c-15.922-8.256-37.628-10.91-59.251-14.984c-5.309-0.938-11.266-2.086-16.866-3.542
						c-5.65-1.483-11.233-3.22-16.728-5.198c-5.493-1.984-10.9-4.204-16.189-6.68l-14.863-7.257
						c-19.473-9.321-38.895-18.618-58.839-26.596l-0.57-0.228c-0.569-0.228-1.128-0.54-1.608-0.879
						c-9.748-6.951-17.666-15.152-24.996-23.096c-7.215-8.086-14.036-15.869-21.232-22.884
						c-7.281-6.902-15.117-12.874-24.297-16.977C1344.137,2469.141,1333.854,2466.972,1323.011,2465.884z"/>
				</g>
				<g>
					<path style="fill:#371A45;" d="M1634.901,2657.556c13.738-29.984,23.305-62.775,30.223-96.329
						c1.789,8.63,3.001,17.314,3.691,26.025c0.921,8.74,1.029,17.472,0.971,26.256c-0.008,8.791-0.356,17.635-1.674,26.343
						c-1.368,8.688-3.174,17.363-6.317,25.646l-1.083,2.855c-2.743,7.227-10.825,10.863-18.052,8.12
						c-7.227-2.743-10.863-10.824-8.121-18.052C1634.647,2658.138,1634.778,2657.827,1634.901,2657.556z"/>
				</g>
			</g>
			<g>
				<path style="fill:#371A45;" d="M2214.159,2588.711c3.59,28.567,6.217,56.407,10.614,83.728
					c4.251,27.303,10.148,54.013,18.794,79.589c8.583,25.595,20.062,49.954,34.972,72.465
					c14.867,22.588,33.284,43.028,54.571,62.423c-27.083-9.794-51.611-27.458-71.208-49.616
					c-19.636-22.193-34.3-48.822-43.505-76.823c-9.377-28.006-13.796-57.267-14.279-86.217
					C2203.733,2645.284,2206.869,2616.505,2214.159,2588.711z"/>
			</g>
			<g style="opacity:0.3;">
				<path style="fill:#FFFFFF;" d="M1578.365,2620.282c-10.79-16.362-55.332-14.121-114.573-48.147
					c-43.1-24.755-56.022,24.293-2.85,51.718C1517.25,2652.896,1589.155,2636.644,1578.365,2620.282z"/>
			</g>
			<g style="opacity:0.3;">
				<path style="fill:#FFFFFF;" d="M1389.932,2562.683c13.41,10.639,31.745,5.256,27.382-11.616
					c-3.238-12.521-21.863-28.17-32.614-23.306C1374.051,2532.579,1379.448,2554.365,1389.932,2562.683z"/>
			</g>
			<g style="opacity:0.3;">
				<path style="fill:#FFFFFF;" d="M2020.797,2625.628c-18.264-12.853-64.566,8.092-141.576-3.294
					c-56.028-8.284-49.283,49.118,18.539,56.035C1969.582,2685.694,2039.061,2638.481,2020.797,2625.628z"/>
			</g>
			<g style="opacity:0.3;">
				<path style="fill:#FFFFFF;" d="M2080.887,2634.873c16.829-9.863,18.666-31.559-1.057-33.876
					c-14.636-1.719-38.936,11.617-38.199,25.044C2042.36,2639.339,2067.729,2642.584,2080.887,2634.873z"/>
			</g>
			<g>
				<path style="fill:#371A45;" d="M1735.443,2567.779c32.106,3.218,63.254,6.591,94.433,8.765
					c31.148,2.171,62.174,3.478,93.268,3.764c31.091,0.256,62.217-0.555,93.478-2.252c31.304-1.538,62.626-4.235,94.734-6.545
					c-29.324,13.351-60.472,22.164-92.092,28.271c-31.667,5.933-63.943,8.873-96.242,8.867c-32.292,0.013-64.652-2.972-96.295-9.528
					C1795.124,2592.563,1764.075,2582.756,1735.443,2567.779z"/>
			</g>
		</g>
		<g>
			<path style="fill:#371A45;" d="M2489.324,3641.86h-371.479c-71.099,0-131.836-50.034-147.7-121.675
				c-11.877-53.628-12.009-116.108-12.139-176.523c-0.071-32.71-0.144-66.504-2.214-96.694c-0.005-0.054-0.01-0.112-0.012-0.171
				c-1.289-18.726-3.271-34.805-6.011-48.687c-1.431,0.137-2.861,0.269-4.292,0.396c-11.565,0.884-23.418,1.626-35.474,2.227
				c-5.088,16.699-8.489,37.578-10.344,63.398c-0.005,0.059-0.01,0.112-0.015,0.171c-2.053,28.672-2.122,60.742-2.19,91.758
				c-0.127,57.744-0.256,117.456-12.202,168.877c-15.942,68.643-76.514,116.587-147.297,116.587h-371.479
				c-59.412,0-107.783-45.947-110.122-104.6c-1.987-49.697,15.869-92.676,50.276-121.016
				c31.545-25.977,75.222-37.681,124.404-33.608c-1.594-46.011-5.798-90.454-9.565-130.264
				c-4.058-42.866-7.913-83.594-8.025-120.649c-0.068-0.02-0.137-0.034-0.208-0.049l-6.257-1.523
				c-1.338-0.322-2.742-0.664-4.868-1.255c-6.223-1.763-12.068-4.351-17.463-7.715c-11.021-6.86-19.746-16.631-25.222-28.247
				c-2.769-5.859-4.663-12.09-5.62-18.511c-0.225-1.299-0.354-2.49-0.474-3.657l-0.308-2.93c-0.02-0.171-0.034-0.347-0.049-0.518
				l-0.42-5.542c-0.479-8.105-0.466-16.216,0.015-24.395c0.757-12.637,2.671-25.781,5.845-40.122l-3.56-32.461
				c-0.383-3.638-0.439-7.031-0.491-10.024c-0.022-1.294-0.042-2.588-0.093-3.887l-0.61-25.703c-0.115-2.358-0.122-4.78-0.073-7.183
				c-21.575-11.245-41.558-23.95-59.531-37.847c-22.498-17.544-44.021-39.248-64.028-64.551c-0.105-0.132-0.208-0.269-0.308-0.4
				c-1.435-1.934-2.917-3.838-4.397-5.742c-2.998-3.857-6.096-7.852-9.011-12.192l-12.002-17.578
				c-0.122-0.181-0.242-0.366-0.359-0.552c-8.149-12.949-15.459-24.663-22.412-36.821c-6.409-11.035-12.712-22.173-18.982-33.252
				c-7.246-12.798-14.736-26.035-22.207-38.765l-12.747-20.962c-3.069-5.005-6.545-10.669-9.507-16.597
				c-7.969-15.464-13.552-31.685-16.502-48.018c-0.74-3.994-1.328-8.247-1.787-12.93l-0.825-11.514
				c-0.012-0.181-0.022-0.366-0.029-0.552c-0.347-8.784-0.366-16.499-0.054-23.579c0.691-16.133,2.952-32.085,6.716-47.402
				c6.965-28.667,19.661-56.265,37.722-81.987c53.022-80.635,105.901-151.548,157.256-210.894l-4.299-54.209
				c-3.684-46.44,7.268-92.886,31.016-132.764c-79.402-44.893-150.134-102.261-210.537-170.772
				c-167.986-6.069-194.097-25.925-202.761-32.517c-63.777-48.508-101.309-168.223-121.563-260.11
				c-19.639-89.104-32.908-205.132-15.63-249.324c3.665-9.37,14.668-37.527,146.414-113.264
				c28.684-193.882,127.073-370.874,277.246-498.601c1.438-1.226,2.9-2.441,4.363-3.657l2.432-2.026
				c1.997-1.67,3.997-3.34,6.016-4.985c3.169-2.588,6.37-5.156,9.587-7.705l2.842-2.241
				c82.444-64.797,175.222-112.292,275.764-141.167c0.156-0.046,0.313-0.09,0.462-0.129c10.017-2.878,20.364-5.632,30.474-8.108
				l1.733-0.439c1.934-0.471,3.862-0.911,5.791-1.353l2.605-0.601c3.591-0.835,7.195-1.663,10.813-2.449
				c1.914-0.417,3.838-0.818,5.762-1.218l1.138-0.234c4.312-0.901,8.643-1.77,12.986-2.6l5.466-1.033
				c5.361-0.989,10.74-1.921,16.135-2.805l2.69-0.449c6.616-1.062,13.274-2.07,19.966-2.974c6.502-0.874,12.996-1.648,19.485-2.366
				l3.162-0.327c4.961-0.527,9.917-1.018,14.873-1.455c2.646-0.232,5.276-0.442,7.903-0.645c3.062-0.239,6.125-0.469,9.187-0.674
				c3.901-0.261,7.81-0.508,11.711-0.713l3.455-0.169c190.086-9.385,378.596,49.272,530.698,165.215
				c3.198,2.441,6.328,4.934,9.458,7.429l5.046,3.997c3.792,3.027,7.546,6.06,11.262,9.133l2.261,1.902
				c6.55,5.456,13.049,11.038,19.299,16.582c1.567,1.387,3.123,2.791,4.675,4.192l0.396,0.357
				c5.75,5.183,11.416,10.444,17.004,15.776l3.35,3.206c76.013,73.374,135.869,159.106,178.003,254.941
				c146.934,38.105,164.988,62.317,170.999,70.371c28.369,38.035,46.318,153.433,50.991,244.558
				c4.817,93.965,0.347,219.341-48.303,283.025c-0.203,0.266-0.42,0.549-0.652,0.847c15.09-8.018,29.612-13.767,43.467-17.205
				c14.072-24.199,38.618-38.74,59.417-43.206c1.897-16.077,5.256-31.399,10.032-45.718c5.588-16.995,13.298-33.794,22.898-49.856
				c8.918-14.817,19.736-29.38,32.178-43.328c11.731-13.062,24.724-25.334,38.662-36.523c6.978-5.618,14.141-10.94,21.27-15.801
				c6.836-4.612,14.36-9.509,23.542-14.436c1.44-0.776,2.996-1.448,4.587-1.97c11.628-3.782,24.59-4.019,36.802-0.881
				c32.832-111.15,69.268-179.124,108.394-202.148c16.946-9.978,35.176-12.483,52.712-7.241
				c22.854,6.826,39.944,22.17,49.412,44.375c17.424,40.854,5.669,102.122-13.074,158.122
				c50.569-31.746,107.568-58.328,149.985-52.209c21.399,3.086,38.73,13.809,50.127,31.006l0,0
				c10.281,15.505,13.074,33.784,8.079,52.859c-11.018,42.102-63.882,92.322-157.244,149.419
				c5.923,8.308,9.717,17.439,11.326,27.314c4.077,25.024-7.634,46.963-18.438,61.184c12.109,34.99,7.39,66.504-13.486,87.6
				c-6.423,6.489-14.507,12.073-24.075,16.633c-0.759,0.972-1.526,1.934-2.319,2.91c-2.566,3.21-5.313,6.311-7.883,9.165
				c-1.76,1.97-3.66,3.918-5.564,5.864l-2.493,2.566c-0.225,0.232-0.454,0.461-0.688,0.681l-8.127,7.615
				c-12.302,10.986-25.603,20.417-39.851,28.32c-8.328,4.438-17.49,9.17-27.427,13.191c4.272,27.468-1.072,67.41-40.134,95.232
				c-11.731,52.708-65.222,200.75-303.491,331.926c-79.207,43.604-165.94,74.609-258.037,92.251l25.442,320.82
				c0.833,1.938,1.638,3.887,2.441,5.83l3.271,7.876c1.487,3.56,3.025,7.241,4.358,11.274
				c13.499,36.875,22.642,76.553,27.17,117.939c4.165,37.671,4.507,76.841,1.045,119.722c-2.795,34.36-8.25,69.106-16.226,103.418
				c6.14,9.526,11.36,19.209,15.552,28.867c3.276,7.505,6.082,15.161,8.318,22.729l2.336,8.477c0.085,0.322,0.161,0.645,0.227,0.967
				l0.754,3.701c0.049,0.249,0.095,0.498,0.134,0.752c1.121,7.046,0.974,14.189-0.432,21.23
				c-2.698,13.594-10.071,26.069-20.757,35.098c-2.583,2.217-5.464,4.272-8.464,6.03l-1.602,0.938
				c-0.256,0.146-0.518,0.293-0.784,0.43l-13.01,6.631c-6.143,3.262-12.571,6.162-18.787,8.97l-0.818,0.371
				c-3.542,1.646-6.76,3.101-9.783,4.419c0.659,40.718-3.396,85.703-8.025,137.046c-3.804,42.158-8.054,89.263-9.624,138.11
				c47.729-4.014,90.435,7.393,121.746,32.847c36.189,29.419,55.007,74.893,52.983,128.052
				C2597.474,3594.145,2548.951,3641.86,2489.324,3641.86z M1990.723,3244.814c2.139,31.465,2.212,65.664,2.283,98.74
				c0.125,58.589,0.254,119.136,11.311,169.063c12.288,55.488,58.972,94.243,113.528,94.243h371.479
				c40.732,0,73.892-32.925,75.491-74.951c1.594-41.895-12.642-77.256-40.085-99.565c-27.781-22.583-66.599-30.62-112.236-23.213
				c-0.789,0.127-1.587,0.2-2.385,0.22c-5.071,0.879-10.295-0.503-14.258-3.813c-4.048-3.389-6.35-8.423-6.267-13.701
				c0.906-57.266,5.867-112.246,10.244-160.752c4.988-55.322,9.297-103.105,7.561-144.727c-0.303-7.29,3.948-14.004,10.669-16.846
				l0.896-0.366c0.146-0.063,0.681-0.283,0.83-0.342c5.298-2.07,10.891-4.497,18.132-7.861l0.986-0.444
				c5.984-2.705,11.636-5.254,17.068-8.135l13.845-7.148c1.191-0.698,2.356-1.528,3.455-2.471c4.751-4.014,7.954-9.414,9.119-15.288
				c0.566-2.827,0.647-5.776,0.242-8.579l-1.145-4.971l-1.418-5.039c-1.763-5.957-4.065-12.241-6.78-18.457
				c-4.263-9.819-9.854-19.722-16.626-29.473c-2.861-4.116-3.818-9.258-2.632-14.131c8.521-34.956,14.287-70.444,17.136-105.479
				c3.279-40.625,2.969-77.617-0.95-113.066c-4.236-38.701-12.761-75.703-25.344-110c-0.071-0.195-0.142-0.396-0.208-0.601
				c-0.918-2.813-2.163-5.791-3.481-8.945l-3.33-8.018c-1.062-2.578-2.124-5.151-3.271-7.715c-0.818-1.826-1.316-3.774-1.475-5.771
				l-26.924-339.507c-0.713-9.004,5.544-17.075,14.446-18.623c94.124-16.377,182.559-47.095,262.852-91.304
				c243.23-133.906,282.122-285.872,287.449-314.976c0.889-4.863,3.794-9.121,7.993-11.724
				c43.103-26.721,29.998-68.826,28.12-74.163c-0.046-0.107-0.093-0.215-0.134-0.322c-1.882-4.617-1.704-9.819,0.491-14.299
				c2.192-4.478,6.194-7.808,10.996-9.153c12.935-3.623,25.52-10.054,36.301-15.796c11.719-6.506,22.893-14.426,32.949-23.401
				l7.468-7.002c0.813-0.847,1.636-1.687,2.456-2.525c1.523-1.558,3.052-3.108,4.507-4.739c2.322-2.576,4.568-5.105,6.699-7.771
				c1.514-1.86,2.817-3.538,4.172-5.388c1.863-2.546,4.382-4.541,7.285-5.774c7.31-3.103,13.132-6.814,17.302-11.028
				c16.875-17.053,8.66-44.482,2.261-59.314c-2.722-6.313-1.497-13.638,3.135-18.718c5.986-6.567,19.607-23.657,16.863-40.503
				c-1.375-8.432-6.394-15.869-15.344-22.725c-4.622-3.542-7.18-9.15-6.824-14.963s3.582-11.067,8.604-14.016
				c92.864-54.568,151.243-105.422,160.166-139.521c2.437-9.297,1.294-17.593-3.389-24.656c-0.002-0.002-0.002-0.002-0.002-0.005
				c-5.813-8.772-14.543-14.055-25.942-15.698c-34.214-4.917-96.45,23.257-170.698,77.319c-6.345,4.624-15,4.451-21.165-0.427
				c-6.157-4.878-8.313-13.262-5.269-20.503c35.068-83.406,47.1-150.186,33.013-183.218c-5.33-12.498-14.492-20.762-27.236-24.568
				c-8.088-2.417-16.477-1.113-24.939,3.87c-31.831,18.73-67.505,91.746-97.876,200.32c-1.453,5.19-5.212,9.422-10.198,11.47
				c-4.983,2.051-10.632,1.692-15.317-0.979c-2.891-1.646-5.315-2.82-7.625-3.689c-6.846-2.644-14.421-3.062-20.459-1.182
				c-7.185,3.882-13.191,7.732-19.961,12.3c-6.294,4.29-12.705,9.055-18.979,14.109c-12.485,10.022-24.092,20.981-34.517,32.59
				c-10.955,12.283-20.471,25.078-28.242,37.988c-8.247,13.801-14.88,28.237-19.685,42.854c-5.31,15.918-8.552,33.374-9.663,51.951
				c-0.283,4.756-2.495,9.192-6.125,12.283c-3.63,3.088-8.362,4.548-13.103,4.084c-1.433-0.149-3.147-0.056-5.112,0.259
				c-11.628,1.868-32.095,11.868-40.874,31.765c-2.344,5.315-7.173,9.121-12.891,10.156c-24.072,4.363-51.846,18.535-82.551,42.119
				c-11.753,9.026-26.965,22.771-46.223,40.171c-58.208,52.59-146.091,131.995-251.418,182.617
				c-7.544,3.635-16.609,1.404-21.614-5.317c-5.005-6.716-4.548-16.038,1.091-22.234c15.642-17.188,30.493-34.98,44.136-52.878
				c32.715-42.915,61.03-89.258,84.158-137.739c2.102-4.402,5.945-7.729,10.605-9.175c144.722-44.951,171.516-68.794,176.282-75.032
				c32.451-42.476,47.454-137.236,41.16-259.983c-5.134-100.142-24.5-199.16-44.092-225.422
				c-7.996-10.72-54.673-32.742-159.91-59.519c-5.283-1.345-9.636-5.076-11.777-10.088
				c-40.444-94.719-98.843-179.321-173.572-251.458l-3.203-3.066c-5.342-5.095-10.769-10.134-16.279-15.1l-0.4-0.361
				c-1.479-1.335-2.959-2.671-4.448-3.992c-5.981-5.303-12.202-10.647-18.489-15.884l-2.124-1.787
				c-3.596-2.974-7.19-5.879-10.808-8.765l-5.039-3.994c-2.937-2.341-5.874-4.683-8.87-6.968
				c-145.54-110.94-325.857-167.075-507.776-158.088l-3.328,0.161c-3.726,0.195-7.464,0.432-11.199,0.684
				c-2.937,0.195-5.872,0.415-8.806,0.645c-2.524,0.198-5.046,0.398-7.566,0.618c-4.727,0.415-9.473,0.886-14.219,1.394
				l-3.049,0.313c-6.186,0.684-12.407,1.423-18.63,2.263c-6.399,0.864-12.769,1.829-19.119,2.847l-2.534,0.425
				c-5.193,0.85-10.342,1.743-15.469,2.688l-5.229,0.989c-4.16,0.796-8.301,1.626-12.429,2.488l-1.157,0.239
				c-1.816,0.378-3.633,0.757-5.444,1.15c-3.459,0.752-6.897,1.545-10.334,2.344l-2.717,0.625c-1.78,0.405-3.56,0.813-5.33,1.243
				l-1.697,0.43c-9.617,2.356-19.487,4.983-29.316,7.803c-0.054,0.017-0.11,0.032-0.164,0.049
				c-96.208,27.617-185,73.064-263.906,135.081l-2.751,2.173c-3.064,2.424-6.128,4.885-9.17,7.368
				c-1.917,1.563-3.809,3.142-5.698,4.722l-2.498,2.082c-1.355,1.126-2.712,2.253-4.053,3.396
				c-144.36,122.783-238.708,293.096-265.674,479.568l-0.808,5.679c-0.732,5.408-3.945,10.164-8.689,12.861
				c-94.483,53.745-133.701,87.378-138.577,99.849c-11.931,30.518-4.37,131.125,17.212,229.046
				c26.458,120.032,66.03,207.429,108.572,239.788c6.257,4.758,38.472,20.671,190.332,25.654c4.878,0.159,9.468,2.349,12.659,6.04
				c62.861,72.644,137.678,132.466,222.373,177.803c4.448,2.383,7.654,6.57,8.792,11.484c1.135,4.917,0.095,10.085-2.854,14.177
				c-26.323,36.514-38.865,81.255-35.317,125.986l4.88,61.533c0.371,4.702-1.169,9.351-4.272,12.9
				c-51.873,59.321-105.488,130.942-159.355,212.886c-0.103,0.151-0.205,0.308-0.313,0.459
				c-15.615,22.188-26.553,45.869-32.51,70.386c-3.225,13.12-5.156,26.768-5.75,40.605c-0.268,6.138-0.254,12.622,0.049,20.415
				l0.767,10.771c0.32,3.213,0.774,6.499,1.343,9.575c2.346,12.993,6.809,25.913,13.284,38.481
				c2.378,4.756,5.435,9.736,8.128,14.131l12.961,21.323c7.747,13.188,15.308,26.548,22.62,39.463
				c6.208,10.972,12.449,21.997,18.848,33.022c6.624,11.577,13.672,22.876,21.536,35.376l11.895,17.422
				c2.319,3.452,4.919,6.807,7.676,10.352c1.57,2.021,3.14,4.048,4.668,6.094c18.23,23.027,37.703,42.686,57.883,58.423
				c18.853,14.575,40.3,27.783,63.684,39.219c6.24,3.052,10.085,9.507,9.797,16.45l-0.193,4.644
				c-0.22,4.331-0.33,7.788-0.173,11.118l0.615,25.835c0.054,1.284,0.081,2.842,0.107,4.404c0.042,2.49,0.081,4.844,0.295,6.885
				l3.823,34.844c0.117,1.069,0.137,2.153,0.056,3.228c-0.015,0.19-0.051,0.562-0.085,0.869c-0.059,0.933-0.193,1.86-0.403,2.773
				c-3.047,13.335-4.858,25.332-5.537,36.675c-0.401,6.802-0.413,13.525-0.032,19.971l0.645,7.495
				c0.081,0.786,0.124,1.294,0.244,1.987c0.505,3.369,1.399,6.309,2.71,9.082c2.568,5.449,6.855,10.229,12.082,13.481
				c2.62,1.636,5.442,2.886,8.403,3.726c1.531,0.425,2.603,0.679,3.623,0.928l6.196,1.509c4.041,0.947,8.218,2.012,12.393,3.081
				l1.636,0.415c7.913,2.017,13.379,9.233,13.174,17.397c-0.969,38.628,3.254,83.257,7.727,130.503
				c4.372,46.226,9.324,98.56,10.237,153.003c0.09,5.332-2.258,10.415-6.379,13.809c-4.002,3.291-9.258,4.639-14.336,3.687
				c-0.845-0.01-1.687-0.078-2.52-0.205c-47.004-7.295-86.572,0.996-114.431,23.94c-25.757,21.211-39.094,54.097-37.556,92.598
				c1.587,39.81,34.597,70.996,75.151,70.996h371.479c54.414,0,100.964-36.807,113.206-89.507
				c11.045-47.549,11.172-105.244,11.294-161.035c0.068-31.655,0.139-64.385,2.288-94.307c0.005-0.063,0.01-0.122,0.015-0.186
				c2.566-35.576,7.754-62.3,16.321-84.092c2.534-6.445,8.63-10.791,15.549-11.084c15.781-0.664,31.24-1.567,45.952-2.686
				c4.15-0.376,8.547-0.801,12.947-1.23l6.172-0.596c8.523-0.82,16.362,4.639,18.569,12.896c5.1,19.048,8.511,41.841,10.43,69.678
				C1990.706,3244.526,1990.716,3244.677,1990.723,3244.814z M2409.813,3409.355c-0.007,0-0.015,0-0.022,0
				C2409.798,3409.355,2409.805,3409.355,2409.813,3409.355z M1393.485,2998.686c0,0.005,0,0.015,0,0.02
				C1393.485,2998.7,1393.485,2998.691,1393.485,2998.686z M1393.485,2998.622c0,0.015,0,0.024,0,0.034
				C1393.485,2998.647,1393.485,2998.637,1393.485,2998.622z M1393.485,2998.549c0,0.02,0,0.039,0,0.054
				C1393.485,2998.588,1393.485,2998.569,1393.485,2998.549z M2455.972,1657.067c-20.247,41.423-44.114,81.289-71.157,118.865
				c66.001-43.54,122.08-94.211,163.035-131.213c17.195-15.537,31.235-28.223,43.037-37.759
				C2563.658,1619.897,2521.61,1636.442,2455.972,1657.067z M3023.114,1729.992h0.051H3023.114z M3107.425,1679.386h0.049H3107.425z
				 M2909.815,1337.731c-0.01,0.005-0.017,0.007-0.027,0.012C2909.798,1337.739,2909.805,1337.736,2909.815,1337.731z"/>
		</g>
	</g>
</g>
</svg>
